<?xml version='1.0' encoding='utf-8'?>
<!DOCTYPE svg PUBLIC '-//W3C//DTD SVG 1.1//EN' 'http://www.w3.org/Graphics/SVG/1.1/DTD/svg11.dtd'>
<!-- Generator: Adobe Illustrator 16.0.0, SVG Export Plug-In . SVG Version: 6.00 Build 0)  -->
<svg height="288.602px" y="0px" viewBox="-349.5 -26.151 1475 288.602" id="Layer_1" x="0px" enable-background="new -349.5 -26.151 1475 288.602" width="1475px" xml:space="preserve" version="1.1" xmlns="http://www.w3.org/2000/svg" xmlns:xlink="http://www.w3.org/1999/xlink">
 <g>
  <path d="M141.961,36.842v56.045h40.464c21.818,0,29.7-14.258,29.7-29.11c0-17.685-9.183-26.935-31.05-26.935&#xd;&#xa;&#x9;&#x9;H141.961z M93.425,193.431V1.442l95.711-0.239c51.799,0,70.947,27.917,70.947,62.289c0,25.592-14.304,65.002-80.096,65.002h-37.472&#xd;&#xa;&#x9;&#x9;v64.663L93.425,193.431z" fill="#112369"/>
  <polygon fill="#112369" points="275.59,193.158 323.597,193.158 323.597,112.335 396.924,112.335 396.924,193.158 444.893,193.158 &#xd;&#xa;&#x9;&#x9;444.893,1.204 396.924,1.204 396.924,70.246 323.597,70.246 323.597,1.204 275.59,1.204 &#x9;"/>
  <path d="M31.505,1.204v120.129c-0.296,15.002-0.296,37.483-32.604,37.483c-11.843,0-24.749-2.998-30.665-13.134&#xd;&#xa;&#x9;&#x9;c-3.231-6.015-3.498-14.228-3.498-24.053V1.204H-83.13V109.02c-0.263,26.268-0.263,60.212,36.35,79.361&#xd;&#xa;&#x9;&#x9;c12.851,6.837,29.817,10.313,44.053,10.313c8.091,0,50.35-1.599,70.863-35.013c10.472-17.492,10.738-36.123,10.998-54.662V1.204&#xd;&#xa;&#x9;&#x9;H31.505z" fill="#112369"/>
  <path d="M-62.902,223.456c0,2.508-0.224,4.547-0.893,6.113c-0.571,1.657-1.737,2.997-3.381,3.999&#xd;&#xa;&#x9;&#x9;c-1.597,0.943-3.677,1.514-6.145,1.514c-2.368,0-4.347-0.418-6.048-1.294c-1.583-0.95-2.791-2.243-3.438-3.93&#xd;&#xa;&#x9;&#x9;c-0.707-1.627-1.064-3.787-1.064-6.402v-14.937h5.147v14.883c0,2.12,0.225,3.505,0.506,4.31c0.38,0.792,0.879,1.438,1.604,1.81&#xd;&#xa;&#x9;&#x9;c0.799,0.487,1.815,0.708,3.004,0.708c2.281,0,3.627-0.495,4.354-1.301c0.748-0.821,1.228-2.465,1.228-5.528v-14.882h5.125&#xd;&#xa;&#x9;&#x9;L-62.902,223.456L-62.902,223.456z" fill="#112369"/>
  <polygon fill="#112369" points="-54.441,208.519 -43.19,225.355 -43.19,208.519 -38.183,208.519 -38.183,234.664 -42.985,234.664 &#xd;&#xa;&#x9;&#x9;-54.191,217.842 -54.191,234.664 -59.145,234.664 -59.145,208.519 &#x9;"/>
  <rect height="26.145" y="208.519" fill="#112369" x="-33.933" width="5.153"/>
  <polygon fill="#112369" points="-22.057,208.519 -15.578,226.753 -15.206,227.872 -14.814,226.671 -8.017,208.519 -2.693,208.519 &#xd;&#xa;&#x9;&#x9;-12.94,234.664 -17.541,234.664 -27.594,208.519 &#x9;"/>
  <polygon fill="#112369" points="17.672,208.519 17.672,213.317 3.303,213.317 3.303,218.775 16.721,218.775 16.721,223.5 &#xd;&#xa;&#x9;&#x9;3.303,223.5 3.303,229.819 18.178,229.819 18.178,234.664 -1.772,234.664 -1.772,208.519 &#x9;"/>
  <path d="M32.71,208.519c2.282,0,4.066,0.197,5.289,0.745c1.388,0.455,2.438,1.368,3.145,2.654&#xd;&#xa;&#x9;&#x9;c0.882,1.261,1.209,2.669,1.209,4.167c0,1.923-0.677,3.589-1.925,4.995c-0.817,0.884-1.961,1.485-3.388,2.009&#xd;&#xa;&#x9;&#x9;c1.13,0.972,1.97,2.174,2.928,3.437l5.156,8.138H38.8l-3.44-5.507c-0.943-1.445-1.643-2.509-2.316-3.269&#xd;&#xa;&#x9;&#x9;c-0.544-0.74-1.019-1.142-1.331-1.423c-0.412-0.213-0.811-0.403-1.182-0.494c-0.209-0.054-0.772-0.084-1.566-0.084h-2.78v10.776&#xd;&#xa;&#x9;&#x9;h-5.114v-26.146L32.71,208.519L32.71,208.519z M35.229,218.785c0.631-0.213,1.056-0.652,1.353-1.065&#xd;&#xa;&#x9;&#x9;c0.357-0.473,0.541-1.049,0.541-1.635c0-0.876-0.32-1.558-0.913-2.108c-0.607-0.516-1.551-0.873-3.3-0.873h-6.723v6.061h5.92&#xd;&#xa;&#x9;&#x9;C33.546,219.166,34.528,219.066,35.229,218.785" fill="#112369"/>
  <path d="M49.626,225.522c0.18,1.08,0.381,1.917,0.787,2.52c0.491,0.631,1.069,1.146,2.058,1.566&#xd;&#xa;&#x9;&#x9;c0.878,0.394,2.083,0.624,3.41,0.624c1.026,0,2.054-0.208,2.817-0.45c0.825-0.335,1.317-0.729,1.589-1.201&#xd;&#xa;&#x9;&#x9;c0.403-0.474,0.573-0.942,0.573-1.515c0-0.54-0.17-1.005-0.491-1.353c-0.285-0.35-0.84-0.799-1.733-1.165&#xd;&#xa;&#x9;&#x9;c-0.661-0.228-2.087-0.606-4.174-1.103c-2.259-0.563-3.856-1.088-4.883-1.574c-1.337-0.677-2.331-1.474-3.037-2.579&#xd;&#xa;&#x9;&#x9;c-0.586-1.16-0.966-2.241-0.966-3.58c0-1.431,0.421-2.677,1.254-3.885c0.794-1.354,1.985-2.215,3.456-2.838&#xd;&#xa;&#x9;&#x9;c1.396-0.608,3.062-0.896,4.776-0.896c1.912,0,3.634,0.288,5.121,0.911c1.521,0.67,2.741,1.628,3.64,2.921&#xd;&#xa;&#x9;&#x9;c0.824,1.292,1.266,2.73,1.33,4.303v0.943l-4.904,0.403l-0.111-0.967c-0.125-1.284-0.616-2.204-1.354-2.805&#xd;&#xa;&#x9;&#x9;c-0.673-0.586-1.81-0.966-3.646-0.966c-1.791,0-2.936,0.38-3.575,0.881c-0.655,0.563-0.958,1.096-0.958,1.78&#xd;&#xa;&#x9;&#x9;c0,0.586,0.209,1.05,0.662,1.466c0.349,0.306,1.729,0.877,4.353,1.485c2.674,0.577,4.464,1.124,5.566,1.595&#xd;&#xa;&#x9;&#x9;c1.536,0.747,2.704,1.629,3.521,2.785c0.725,1.218,1.136,2.548,1.136,4.014c0,1.47-0.411,2.892-1.222,4.161&#xd;&#xa;&#x9;&#x9;c-0.896,1.345-2.08,2.305-3.63,3.019c-1.472,0.687-3.208,1.065-5.046,1.065c-2.243,0-4.315-0.349-5.908-1.065&#xd;&#xa;&#x9;&#x9;c-1.597-0.714-2.867-1.748-3.871-3.24c-0.958-1.452-1.395-3.125-1.478-4.836l-0.073-0.927l4.866-0.472L49.626,225.522z" fill="#112369"/>
  <rect height="26.145" y="208.519" fill="#112369" x="69.197" width="5.126"/>
  <polygon fill="#112369" points="76.566,213.327 76.566,208.519 97.623,208.519 97.623,213.327 89.642,213.327 89.642,234.664 &#xd;&#xa;&#x9;&#x9;84.51,234.664 84.51,213.327 &#x9;"/>
  <path d="M111.016,208.511l10.684,26.152h-5.722l-2.86-7.31h-8.753l-2.662,7.31h-5.452l10.024-26.152H111.016z&#xd;&#xa;&#x9;&#x9; M109.373,217.416c-0.225-0.745-0.437-1.369-0.654-1.916c-0.133,0.463-0.327,0.943-0.593,1.488l-2.118,5.796h5.429L109.373,217.416&#xd;&#xa;&#x9;&#x9;z" fill="#112369"/>
  <path d="M126.045,225.522c0.141,1.08,0.43,1.917,0.863,2.52c0.407,0.631,1.022,1.146,2.041,1.566&#xd;&#xa;&#x9;&#x9;c0.879,0.394,2.064,0.624,3.278,0.624c1.114,0,2.125-0.208,2.883-0.45c0.832-0.335,1.292-0.729,1.658-1.201&#xd;&#xa;&#x9;&#x9;c0.334-0.474,0.512-0.942,0.512-1.515c0-0.54-0.179-1.005-0.444-1.353c-0.372-0.35-0.84-0.799-1.851-1.165&#xd;&#xa;&#x9;&#x9;c-0.55-0.228-1.917-0.606-4.125-1.103c-2.198-0.563-3.864-1.088-4.909-1.574c-1.235-0.677-2.224-1.474-2.966-2.579&#xd;&#xa;&#x9;&#x9;c-0.623-1.16-0.981-2.241-0.981-3.58c0-1.431,0.421-2.677,1.224-3.885c0.817-1.354,1.992-2.215,3.455-2.838&#xd;&#xa;&#x9;&#x9;c1.511-0.608,3.084-0.896,4.853-0.896c1.882,0,3.574,0.288,5.076,0.911c1.524,0.67,2.794,1.628,3.647,2.921&#xd;&#xa;&#x9;&#x9;c0.81,1.292,1.243,2.73,1.243,4.303l0.11,0.943l-4.955,0.403l-0.083-0.967c-0.209-1.284-0.632-2.204-1.357-2.805&#xd;&#xa;&#x9;&#x9;c-0.662-0.586-1.829-0.966-3.605-0.966c-1.783,0-2.988,0.38-3.619,0.881c-0.617,0.563-0.997,1.096-0.997,1.78&#xd;&#xa;&#x9;&#x9;c0,0.586,0.262,1.05,0.701,1.466c0.407,0.306,1.752,0.877,4.338,1.485c2.608,0.577,4.429,1.124,5.552,1.595&#xd;&#xa;&#x9;&#x9;c1.566,0.747,2.733,1.629,3.505,2.785c0.794,1.218,1.19,2.548,1.19,4.014c0,1.47-0.396,2.892-1.3,4.161&#xd;&#xa;&#x9;&#x9;c-0.757,1.345-2.035,2.305-3.537,3.019c-1.503,0.687-3.209,1.065-5.068,1.065c-2.258,0-4.236-0.349-5.901-1.065&#xd;&#xa;&#x9;&#x9;c-1.591-0.714-2.913-1.748-3.871-3.24c-1.003-1.452-1.404-3.125-1.487-4.836l-0.049-0.927l4.836-0.472L126.045,225.522z" fill="#112369"/>
  <path d="M164.882,208.519c1.672,0,2.95,0.145,3.782,0.258c1.346,0.167,2.46,0.595,3.457,1.264&#xd;&#xa;&#x9;&#x9;c0.897,0.653,1.619,1.589,2.166,2.724c0.583,1.139,0.856,2.416,0.856,3.686c0,2.325-0.741,4.266-2.213,5.908&#xd;&#xa;&#x9;&#x9;c-1.555,1.704-4.335,2.487-7.765,2.487h-5.269v9.818h-5.11v-26.145H164.882L164.882,208.519z M168.984,219.149&#xd;&#xa;&#x9;&#x9;c0.559-0.577,0.966-1.42,0.966-2.6c0-0.83-0.273-1.478-0.639-2.022c-0.328-0.548-0.84-0.868-1.44-1.064&#xd;&#xa;&#x9;&#x9;c-0.372-0.106-1.315-0.136-2.703-0.136h-5.27v6.699h5.312C167.223,220.024,168.391,219.652,168.984,219.149" fill="#112369"/>
  <polygon fill="#112369" points="197.11,208.519 197.11,213.317 182.79,213.317 182.79,218.775 196.238,218.775 196.238,223.5 &#xd;&#xa;&#x9;&#x9;182.79,223.5 182.79,229.819 197.725,229.819 197.725,234.664 177.729,234.664 177.729,208.519 &#x9;"/>
  <polygon fill="#112369" points="205.486,208.519 205.486,229.819 217.417,229.819 217.417,234.664 200.387,234.664 &#xd;&#xa;&#x9;&#x9;200.387,208.519 &#x9;"/>
  <rect height="26.145" y="208.519" fill="#112369" x="220.228" width="5.037"/>
  <polygon fill="#112369" points="227.521,213.327 227.521,208.519 248.599,208.519 248.599,213.327 240.658,213.327 &#xd;&#xa;&#x9;&#x9;240.658,234.664 235.508,234.664 235.508,213.327 &#x9;"/>
  <path d="M261.992,208.511l10.715,26.152h-5.787l-2.763-7.31h-8.813l-2.673,7.31h-5.435l10.015-26.152H261.992z&#xd;&#xa;&#x9;&#x9; M260.38,217.416c-0.296-0.745-0.476-1.369-0.707-1.916c-0.103,0.463-0.312,0.943-0.509,1.488L257,222.784h5.429L260.38,217.416z" fill="#112369"/>
  <polygon fill="#112369" points="288.167,208.519 288.167,218.427 298.773,218.427 298.773,208.519 303.874,208.519 &#xd;&#xa;&#x9;&#x9;303.874,234.664 298.773,234.664 298.773,223.194 288.167,223.194 288.167,234.664 283.011,234.664 283.011,208.519 &#x9;"/>
  <path d="M319.323,208.511l10.632,26.152h-5.71l-2.803-7.31h-8.791l-2.608,7.31h-5.528l10.061-26.152H319.323z&#xd;&#xa;&#x9;&#x9; M317.681,217.416c-0.259-0.745-0.529-1.369-0.669-1.916c-0.14,0.463-0.349,0.943-0.521,1.488l-2.19,5.796h5.414L317.681,217.416z" fill="#112369"/>
  <path d="M342.254,208.519c2.19,0,3.886,0.197,5.248,0.745c1.292,0.455,2.421,1.368,3.14,2.654&#xd;&#xa;&#x9;&#x9;c0.747,1.261,1.161,2.669,1.161,4.167c0,1.923-0.6,3.589-1.97,4.995c-0.809,0.884-1.961,1.485-3.296,2.009&#xd;&#xa;&#x9;&#x9;c1.068,0.972,1.973,2.174,2.89,3.437l5.155,8.138h-6.332l-3.417-5.507c-0.898-1.445-1.666-2.509-2.268-3.269&#xd;&#xa;&#x9;&#x9;c-0.653-0.74-1.121-1.142-1.439-1.423c-0.35-0.213-0.788-0.403-1.13-0.494c-0.265-0.054-0.722-0.084-1.565-0.084h-2.745v10.776&#xd;&#xa;&#x9;&#x9;h-5.126v-26.146L342.254,208.519L342.254,208.519z M344.684,218.785c0.632-0.213,1.129-0.652,1.395-1.065&#xd;&#xa;&#x9;&#x9;c0.336-0.473,0.521-1.049,0.521-1.635c0-0.876-0.305-1.558-0.981-2.108c-0.52-0.516-1.566-0.873-3.284-0.873h-6.649v6.061h5.877&#xd;&#xa;&#x9;&#x9;C342.978,219.166,343.985,219.066,344.684,218.785" fill="#112369"/>
  <path d="M366.938,208.511l10.677,26.152h-5.817l-2.741-7.31h-8.775l-2.662,7.31h-5.438l9.978-26.152H366.938z&#xd;&#xa;&#x9;&#x9; M365.273,217.416c-0.251-0.745-0.468-1.369-0.714-1.916c-0.142,0.463-0.339,0.943-0.51,1.488l-2.156,5.796h5.373L365.273,217.416z&#xd;&#xa;&#x9;&#x9;" fill="#112369"/>
  <path d="M388.169,208.519c1.696,0,2.913,0.145,3.865,0.258c1.278,0.167,2.44,0.595,3.36,1.264&#xd;&#xa;&#x9;&#x9;c0.951,0.653,1.696,1.589,2.22,2.724c0.571,1.139,0.822,2.416,0.822,3.686c0,2.325-0.701,4.266-2.206,5.908&#xd;&#xa;&#x9;&#x9;c-1.597,1.704-4.22,2.487-7.771,2.487h-5.247v9.818h-5.102v-26.145H388.169L388.169,208.519z M392.216,219.149&#xd;&#xa;&#x9;&#x9;c0.662-0.577,1.066-1.42,1.066-2.6c0-0.83-0.296-1.478-0.647-2.022c-0.419-0.548-0.866-0.868-1.483-1.064&#xd;&#xa;&#x9;&#x9;c-0.396-0.106-1.286-0.136-2.7-0.136h-5.24v6.699h5.246C390.535,220.024,391.662,219.652,392.216,219.149" fill="#112369"/>
  <path d="M412.703,208.511l10.593,26.152h-5.703l-2.821-7.31h-8.716l-2.708,7.31h-5.483l9.979-26.152H412.703z&#xd;&#xa;&#x9;&#x9; M411.014,217.416c-0.25-0.745-0.517-1.369-0.753-1.916c-0.115,0.463-0.306,0.943-0.435,1.488l-2.181,5.796h5.406L411.014,217.416z&#xd;&#xa;&#x9;&#x9;" fill="#112369"/>
  <path d="M-340.615,108.386c5.684-64.83,62.668-112.704,127.474-107.041c64.696,5.676,112.615,62.729,106.97,127.494&#xd;&#xa;&#x9;&#x9;c-5.7,64.73-62.733,112.592-127.433,106.98C-298.38,230.07-346.294,173.005-340.615,108.386" fill="#EC1C24"/>
  <path d="M-338.791,108.446c5.505-63.648,61.836-110.896,125.493-105.319&#xd;&#xa;&#x9;&#x9;c63.623,5.582,110.838,61.898,105.361,125.499c-5.615,63.681-61.909,110.904-125.573,105.354&#xd;&#xa;&#x9;&#x9;c-30.837-2.655-58.776-17.24-78.621-40.99C-332.031,169.339-341.533,139.272-338.791,108.446 M-233.815,237.553&#xd;&#xa;&#x9;&#x9;c65.647,5.717,123.642-42.943,129.415-108.595C-98.764,63.397-147.361,5.344-213.016-0.41&#xd;&#xa;&#x9;&#x9;c-65.537-5.73-123.635,42.969-129.343,108.542c-2.794,31.806,6.986,62.788,27.442,87.154&#xd;&#xa;&#x9;&#x9;C-294.4,219.79-265.563,234.815-233.815,237.553" fill="#112369"/>
  <path d="M-310.563,110.949c4.22-48.206,46.627-83.719,94.759-79.555c48.157,4.22,83.758,46.624,79.536,94.813&#xd;&#xa;&#x9;&#x9;c-4.163,48.106-46.627,83.727-94.71,79.527C-279.149,201.493-314.77,159.088-310.563,110.949" fill="#FFFFFF"/>
  <path d="M-308.77,111.108c1.963-22.824,12.731-43.475,30.289-58.232c17.514-14.718,39.784-21.711,62.571-19.688&#xd;&#xa;&#x9;&#x9;c22.737,1.924,43.46,12.75,58.241,30.224c14.646,17.627,21.622,39.844,19.668,62.597c-4.167,47.089-45.757,82.055-92.858,77.947&#xd;&#xa;&#x9;&#x9;C-277.975,199.887-312.914,158.116-308.77,111.108 M-231.149,207.469c48.982,4.303,92.394-32.106,96.701-81.126&#xd;&#xa;&#x9;&#x9;c2.079-23.756-5.248-46.881-20.567-65.227c-15.346-18.183-36.878-29.391-60.597-31.495c-23.752-2.075-46.943,5.164-65.201,20.521&#xd;&#xa;&#x9;&#x9;c-18.263,15.33-29.461,36.944-31.555,60.691C-316.62,159.819-280.271,203.203-231.149,207.469" fill="#112369"/>
  <path d="M-316.958,206.784l-4.236,8.26c0,0,6.547,3.057,22.193,2.04c23.252-1.523,33.989,6.941,33.989,6.941&#xd;&#xa;&#x9;&#x9;c0.848,0.67,2.057,0.782,3.624,0.32c0,0,8.589-6.105,18.829-4.373c11.182,1.74,22.73,3.43,30.251,4.532&#xd;&#xa;&#x9;&#x9;c7.554,1.049,15.894,2.584,15.894,2.584l42.688-41.376c0,0,2.311-5.149-2.289-6.898c-4.666-1.734-3.3-0.585-3.3-0.585&#xd;&#xa;&#x9;&#x9;l-41.208,36.493l-51.457-5.61l-9.844,3.566c-11.003-3.764-26.54-6.145-46.662-7.081L-316.958,206.784z" fill="#FFC10E"/>
  <path d="M-317.35,206.587l-4.251,8.259l-0.239,0.456l0.498,0.144c0.239,0.16,6.815,3.097,22.342,2.031&#xd;&#xa;&#x9;&#x9;c22.814-1.453,33.647,6.873,33.723,6.92c0.992,0.691,2.321,0.798,3.995,0.403l0.087-0.063l0.083-0.023&#xd;&#xa;&#x9;&#x9;c0.095-0.045,8.529-5.977,18.487-4.334c10.744,1.772,21.984,3.36,29.452,4.417l0.81,0.115c7.453,1.064,15.852,2.511,15.852,2.511&#xd;&#xa;&#x9;&#x9;l0.205,0.059l0.179-0.144l42.719-41.271h0.076l0.05-0.121c0.045-0.166,1.182-2.715,0.194-4.974&#xd;&#xa;&#x9;&#x9;c-0.513-1.186-1.471-2.068-2.809-2.555c-3.343-1.294-3.756-1.126-4.019-0.684c-0.133,0.257-0.095,0.546,0.233,0.833V177.9&#xd;&#xa;&#x9;&#x9;l-41.152,36.44l0.373-0.015l-51.521-5.565h-0.039h-0.14l-9.848,3.497h0.35c-10.957-3.756-26.71-6.146-46.764-7.057l-0.062-0.03&#xd;&#xa;&#x9;&#x9;v0.03l-8.472,1.2l-0.267,0.017L-317.35,206.587z M-308.488,206.086c20.004,0.905,35.634,3.238,46.536,6.988l0.125,0.061&#xd;&#xa;&#x9;&#x9;l0.163-0.061l9.826-3.521l-0.187,0.067l51.465,5.514l0.213,0.061l0.136-0.151l41.111-36.474l0.365-0.347l-0.365-0.32v-0.046v0.267&#xd;&#xa;&#x9;&#x9;c-0.095,0.1-0.157,0.16-0.209,0.16c0.052-0.061,0.574-0.061,3.129,0.912c1.13,0.441,1.961,1.154,2.289,2.136&#xd;&#xa;&#x9;&#x9;c0.871,1.902-0.148,4.191-0.148,4.191l0.046-0.047l-42.673,41.219l0.336-0.122c-0.084,0-8.479-1.484-15.955-2.54l-0.795-0.107&#xd;&#xa;&#x9;&#x9;c-7.438-1.063-18.711-2.67-29.427-4.408c-10.297-1.749-19.057,4.469-19.064,4.516l0.086-0.047c-1.387,0.367-2.524,0.23-3.239-0.287&#xd;&#xa;&#x9;&#x9;c-0.148-0.03-11.121-8.602-34.351-7.065c-15.292,1.064-21.859-1.909-21.942-1.909l0.179,0.548l4.304-8.28l-0.342,0.174l8.544-1.079&#xd;&#xa;&#x9;&#x9;H-308.488L-308.488,206.086z" fill="#231F20"/>
  <path d="M-260.787,217.477L-260.787,217.477c0.104-0.046,5.738-5.277,20.567-3.071&#xd;&#xa;&#x9;&#x9;c14.951,2.333,41.378,6.127,41.62,6.127l0.229,0.061l0.107-0.122l41.095-39.17l-0.577-0.677l-41.039,39.224l0.312-0.152&#xd;&#xa;&#x9;&#x9;c-0.262,0-26.654-3.832-41.59-6.052c-13.62-2.139-19.717,1.96-21.331,3.238L-260.787,217.477z" fill="#231F20"/>
  <path d="M-260.405,219.568L-260.405,219.568c0.017-0.053,6.028-5.452,20.823-3.238&#xd;&#xa;&#x9;&#x9;c15.061,2.31,41.429,6.121,41.662,6.205l0.228,0.029l0.091-0.113l42.324-39.728L-155.87,182l-42.25,39.718l0.327-0.144&#xd;&#xa;&#x9;&#x9;c-0.267-0.028-26.647-3.838-41.625-6.06c-15.239-2.342-21.366,3.241-21.601,3.407L-260.405,219.568z" fill="#231F20"/>
  <path d="M-260.517,221.994L-260.517,221.994c0.132-0.051,7.802-5.255,21.818-3.339&#xd;&#xa;&#x9;&#x9;c15.023,2.031,41.406,6.092,41.646,6.146l0.216,0.061l0.22-0.176l42.54-39.999l-0.608-0.653l-42.518,40l0.327-0.047&#xd;&#xa;&#x9;&#x9;c-0.262-0.061-26.616-4.105-41.692-6.113c-13.271-1.849-20.985,2.511-22.403,3.383L-260.517,221.994z" fill="#231F20"/>
  <path d="M-267.218,171.364l-49.65,35.224c0,0,0.201,0.896,3.768,1.337c6.122,0.838,10.772,0.982,18.301,0.838&#xd;&#xa;&#x9;&#x9;c7.562-0.078,14.531,0,20.038,1.581c5.403,1.582,9.312,3.437,9.312,3.437s2.841,0.692,4.041,0.692&#xd;&#xa;&#x9;&#x9;c1.205,0,3.435-3.126,13.822-2.989c10.505,0.107,48.631,6.214,48.631,6.214l41.505-39.947c0,0-37.03-0.852-48.958-1.413&#xd;&#xa;&#x9;&#x9;c-11.829-0.609-16.368,1.49-16.368,1.49s-3.123-5.385-17.538-5.111C-255.64,173.097-266.712,171.515-267.218,171.364" fill="#FFFFFF"/>
  <path d="M-267.496,171.087l-49.672,35.18l-0.179,0.152v0.32c0.125,0.258,0.609,1.185,4.228,1.703&#xd;&#xa;&#x9;&#x9;c6.138,0.807,10.792,0.852,18.324,0.789c6.666-0.12,14.244-0.12,19.848,1.575c5.334,1.452,9.267,3.309,9.267,3.367h0.034h0.083&#xd;&#xa;&#x9;&#x9;c0.118,0,2.928,0.67,4.152,0.67c0.396,0,0.81-0.122,1.414-0.525c1.528-0.737,4.737-2.517,12.408-2.394&#xd;&#xa;&#x9;&#x9;c10.307,0.152,48.17,6.175,48.544,6.228h0.266l0.106-0.098L-157.177,178l0.756-0.707l-1.038-0.044&#xd;&#xa;&#x9;&#x9;c-0.388,0-37.125-0.828-48.939-1.339c-11.822-0.607-16.339,1.424-16.556,1.552l0.529,0.175c-0.163-0.189-3.457-5.636-17.894-5.255&#xd;&#xa;&#x9;&#x9;c-15.179,0.289-26.282-1.292-26.742-1.354l-0.244-0.106L-267.496,171.087z M-240.27,173.218c13.875-0.32,17.113,4.782,17.113,4.867&#xd;&#xa;&#x9;&#x9;l0.205,0.335l0.366-0.196c0,0,4.569-1.979,16.16-1.492c11.801,0.518,48.581,1.431,48.969,1.431l-0.286-0.7l-41.563,39.956&#xd;&#xa;&#x9;&#x9;l0.46-0.091c-0.46-0.106-38.318-6.214-48.745-6.266c-7.898-0.106-11.22,1.655-12.795,2.577c-0.505,0.176-0.84,0.381-1.026,0.381&#xd;&#xa;&#x9;&#x9;c-1.145,0-3.942-0.707-3.942-0.707l0.057,0.054c-0.034-0.054-3.974-1.88-9.376-3.429c-5.817-1.599-13.457-1.711-20.122-1.566&#xd;&#xa;&#x9;&#x9;c-7.49,0.105-12.126,0-18.269-0.814c-2.998-0.39-3.457-1.056-3.457-1.056l-0.104,0.47l49.674-35.271l-0.396,0.061&#xd;&#xa;&#x9;&#x9;C-266.886,171.926-255.829,173.537-240.27,173.218" fill="#231F20"/>
  <path d="M-316.309,209.674c0.104,0.018,8.745,2.425,21.406,1.444c19.274-1.43,28.765,5.331,28.83,5.4l0.558-0.654&#xd;&#xa;&#x9;&#x9;c-0.425-0.259-9.852-7.004-29.49-5.582c-12.528,0.904-20.978-1.376-21.118-1.422L-316.309,209.674z" fill="#231F20"/>
  <path d="M-318.499,214.236c0.083,0.031,9.563,2.283,22.335,1.362c19.21-1.362,30.795,6.639,30.868,6.714&#xd;&#xa;&#x9;&#x9;l0.537-0.743c-0.194-0.071-11.882-8.261-31.513-6.783c-12.56,0.909-21.906-1.371-21.993-1.394L-318.499,214.236z" fill="#231F20"/>
  <path d="M-317.346,211.833c0.125,0.063,8.722,2.511,21.445,1.613c19.26-1.331,29.304,5.292,29.381,5.292&#xd;&#xa;&#x9;&#x9;l0.524-0.685c-0.141-0.046-10.429-6.828-29.989-5.445c-12.556,0.973-20.989-1.55-21.057-1.567L-317.346,211.833z" fill="#231F20"/>
  <polygon fill="#231F20" points="-307.609,204.593 -288.399,205.096 -288.373,204.245 -307.564,203.745 &#x9;"/>
  <path d="M-282.715,205.12c5.981,0.661,7.951,1.011,11.486,1.907l4.164,0.897l0.14-0.782l-4.189-1.012&#xd;&#xa;&#x9;&#x9;c-3.502-0.685-5.472-1.2-11.49-1.855L-282.715,205.12z" fill="#231F20"/>
  <polygon fill="#231F20" points="-304.399,202.024 -285.362,202.847 -285.267,202.024 -304.291,201.128 &#x9;"/>
  <polygon fill="#231F20" points="-301.509,199.667 -282.213,200.64 -282.184,199.787 -301.457,198.769 &#x9;"/>
  <polygon fill="#231F20" points="-298.609,197.809 -279.111,198.414 -279.072,197.597 -298.609,196.915 &#x9;"/>
  <polygon fill="#231F20" points="-295.575,195.622 -276.027,196.137 -275.951,195.355 -295.575,194.784 &#x9;"/>
  <polygon fill="#231F20" points="-292.647,193.507 -272.97,193.948 -272.97,193.127 -292.647,192.656 &#x9;"/>
  <polygon fill="#231F20" points="-289.202,191.019 -269.822,191.773 -269.765,190.899 -289.092,190.131 &#x9;"/>
  <polygon fill="#231F20" points="-286.229,189.051 -266.776,189.493 -266.746,188.63 -286.174,188.152 &#x9;"/>
  <polygon fill="#231F20" points="-282.928,186.693 -263.647,187.241 -263.647,186.48 -282.906,185.903 &#x9;"/>
  <polygon fill="#231F20" points="-279.072,184.548 -260.517,185.058 -260.517,184.153 -279.027,183.667 &#x9;"/>
  <polygon fill="#231F20" points="-276.069,182.192 -257.48,182.792 -257.48,181.978 -276.069,181.355 &#x9;"/>
  <polygon fill="#231F20" points="-272.852,179.851 -254.389,180.563 -254.373,179.774 -272.852,178.973 &#x9;"/>
  <polygon fill="#231F20" points="-269.819,177.672 -251.262,178.284 -251.262,177.506 -269.81,176.869 &#x9;"/>
  <path d="M-267.297,175.043c5.114,0.684,9.319,0.806,13.533,0.882c1.783,0.122,3.67,0.137,5.541,0.183l0.06-0.873&#xd;&#xa;&#x9;&#x9;c-1.894-0.031-3.817-0.145-5.585-0.145c-4.141-0.146-8.415-0.243-13.408-0.836L-267.297,175.043z" fill="#231F20"/>
  <path d="M-279.734,202.847c5.937,0.685,7.897,1.139,11.392,1.961l4.167,0.919l0.201-0.844l-4.102-0.898&#xd;&#xa;&#x9;&#x9;c-3.62-0.852-5.513-1.368-11.62-1.961L-279.734,202.847z" fill="#231F20"/>
  <path d="M-276.928,200.64c6.08,0.608,8.068,1.065,11.563,1.878l4.145,0.936l0.164-0.865l-4.122-0.929&#xd;&#xa;&#x9;&#x9;c-3.559-0.792-5.479-1.2-11.615-1.87L-276.928,200.64z" fill="#231F20"/>
  <path d="M-273.901,198.328c5.996,0.73,7.957,1.139,11.448,1.963l4.186,0.927l0.198-0.838l-4.191-0.926&#xd;&#xa;&#x9;&#x9;c-3.505-0.83-5.521-1.264-11.574-1.915L-273.901,198.328z" fill="#231F20"/>
  <path d="M-271.035,196.137c6.08,0.648,8.018,1.104,11.524,1.963l4.167,0.88l0.202-0.865l-4.145-0.929&#xd;&#xa;&#x9;&#x9;c-3.589-0.804-5.472-1.276-11.563-1.899L-271.035,196.137z" fill="#231F20"/>
  <path d="M-268.05,193.834c6.02,0.707,7.951,1.119,11.541,1.978l4.065,0.904l0.194-0.866l-4.14-0.913&#xd;&#xa;&#x9;&#x9;c-3.506-0.774-5.49-1.202-11.628-1.885L-268.05,193.834z" fill="#231F20"/>
  <path d="M-265.099,191.622c5.972,0.67,7.935,1.111,11.407,1.916l4.229,0.897l0.164-0.837l-4.147-0.865&#xd;&#xa;&#x9;&#x9;c-3.568-0.837-5.505-1.271-11.566-1.903L-265.099,191.622z" fill="#231F20"/>
  <path d="M-262.164,189.401c6.064,0.67,7.958,1.049,11.456,1.908l4.213,0.876l0.155-0.763l-4.198-0.973&#xd;&#xa;&#x9;&#x9;c-3.513-0.79-5.475-1.308-11.582-1.914L-262.164,189.401z" fill="#231F20"/>
  <path d="M-259.198,187.103c6.026,0.716,7.934,1.142,11.439,1.895l4.164,0.976l0.156-0.89l-4.147-0.93&#xd;&#xa;&#x9;&#x9;c-3.537-0.738-5.491-1.261-11.559-1.884L-259.198,187.103z" fill="#231F20"/>
  <path d="M-256.301,184.913c6.026,0.61,7.958,1.112,11.494,1.856l4.109,0.96l0.259-0.836l-4.167-0.943&#xd;&#xa;&#x9;&#x9;c-3.559-0.807-5.528-1.218-11.578-1.909L-256.301,184.913z" fill="#231F20"/>
  <path d="M-253.37,182.694c6.012,0.569,7.988,1.033,11.51,1.848l4.175,0.935l0.178-0.851l-4.167-0.959&#xd;&#xa;&#x9;&#x9;c-3.56-0.731-5.536-1.264-11.548-1.87L-253.37,182.694z" fill="#231F20"/>
  <path d="M-250.419,180.397c6.004,0.661,7.913,1.126,11.494,1.9l4.157,0.946l0.174-0.87l-4.158-0.919&#xd;&#xa;&#x9;&#x9;c-3.589-0.828-5.453-1.262-11.555-1.863L-250.419,180.397z" fill="#231F20"/>
  <path d="M-247.525,178.161c6.065,0.639,7.95,1.035,11.539,1.902l4.145,0.912l0.209-0.837l-4.144-0.942&#xd;&#xa;&#x9;&#x9;c-3.589-0.792-5.559-1.293-11.669-1.948L-247.525,178.161z" fill="#231F20"/>
  <path d="M-244.544,175.911c6.003,0.652,7.981,1.077,11.494,1.877l4.134,0.944l0.206-0.875l-4.145-0.866&#xd;&#xa;&#x9;&#x9;c-3.551-0.821-5.528-1.264-11.555-1.947L-244.544,175.911z" fill="#231F20"/>
  <polygon fill="#231F20" points="-245.464,208.367 -226.077,210.389 -225.989,209.538 -245.382,207.484 &#x9;"/>
  <polygon fill="#231F20" points="-221.54,210.953 -203.335,213.872 -203.248,213.036 -221.368,210.154 &#x9;"/>
  <polygon fill="#231F20" points="-242.522,206.114 -223.157,208.125 -223.129,207.309 -242.434,205.309 &#x9;"/>
  <polygon fill="#231F20" points="-239.58,203.88 -220.206,205.917 -220.172,205.038 -239.445,202.953 &#x9;"/>
  <polygon fill="#231F20" points="-236.612,201.66 -217.256,203.637 -217.191,202.785 -236.511,200.807 &#x9;"/>
  <polygon fill="#231F20" points="-233.609,199.385 -214.327,201.423 -214.266,200.564 -233.57,198.495 &#x9;"/>
  <polygon fill="#231F20" points="-230.768,197.127 -211.412,199.12 -211.3,198.281 -230.685,196.35 &#x9;"/>
  <polygon fill="#231F20" points="-227.819,194.891 -208.403,196.9 -208.313,196.079 -227.67,193.994 &#x9;"/>
  <polygon fill="#231F20" points="-224.905,192.663 -205.468,194.631 -205.438,193.828 -224.837,191.796 &#x9;"/>
  <polygon fill="#231F20" points="-221.944,190.398 -202.563,192.434 -202.49,191.591 -221.86,189.493 &#x9;"/>
  <polygon fill="#231F20" points="-218.965,188.1 -199.678,190.131 -199.514,189.333 -218.929,187.241 &#x9;"/>
  <polygon fill="#231F20" points="-218.639,208.731 -200.369,211.62 -200.287,210.816 -218.491,207.863 &#x9;"/>
  <polygon fill="#231F20" points="-215.719,206.497 -197.499,209.339 -197.403,208.58 -215.548,205.597 &#x9;"/>
  <polygon fill="#231F20" points="-212.693,204.213 -194.563,207.142 -194.442,206.298 -212.544,203.394 &#x9;"/>
  <polygon fill="#231F20" points="-209.81,201.964 -191.612,204.883 -191.442,204.047 -209.647,201.067 &#x9;"/>
  <polygon fill="#231F20" points="-206.841,199.698 -188.665,202.618 -188.51,201.781 -206.685,198.861 &#x9;"/>
  <polygon fill="#231F20" points="-203.91,197.438 -185.758,200.389 -185.572,199.466 -203.776,196.579 &#x9;"/>
  <polygon fill="#231F20" points="-201.894,194.631 -183.711,197.597 -183.532,196.714 -201.769,193.795 &#x9;"/>
  <polygon fill="#231F20" points="-199.741,191.773 -181.529,194.664 -181.373,193.828 -199.625,190.936 &#x9;"/>
  <polygon fill="#231F20" points="-196.704,189.226 -178.582,192.207 -178.404,191.437 -196.616,188.472 &#x9;"/>
  <polygon fill="#231F20" points="-194.103,186.555 -175.89,189.493 -175.751,188.639 -193.978,185.719 &#x9;"/>
  <polygon fill="#231F20" points="-190.833,184.1 -172.675,187.066 -172.501,186.235 -190.771,183.263 &#x9;"/>
  <path d="M-232.445,158.269c0,0,0.421,6.089-2.32,10.768c-2.813,4.715-6.567,8.091-8.996,8.183&#xd;&#xa;&#x9;&#x9;c-3.783,0.106-5.677-2.182-8.574,3.345c2.479-2.272,5.031-2.563,7.631-0.818c-3.984,0.188-5.901,2.173-5.894,5.778&#xd;&#xa;&#x9;&#x9;c2.042-3.012,5-4.184,8.799-3.515c3.341,0.929,4.486,1.02,5.289,4.684c1.712-1.549,1.248-3.755-1.372-6.539&#xd;&#xa;&#x9;&#x9;c0.942-4.067,3.319-3.84,7.197,0.623c0,0-3.567-5.565-0.406-9.11c3.03-3.452,9.635-6.752,9.635-6.752l2.054-0.989L-232.445,158.269&#xd;&#xa;&#x9;&#x9;z" fill="#FFC10E"/>
  <path d="M-232.856,158.269L-232.856,158.269c0,0.037,0.368,6.067-2.319,10.568c-2.601,4.44-6.285,7.88-8.589,7.895&#xd;&#xa;&#x9;&#x9;c-0.84,0.083-1.696-0.015-2.407-0.107c-2.38-0.304-4.229-0.577-6.57,3.773l0.685,0.486c2.392-2.091,4.666-2.425,7.132-0.774&#xd;&#xa;&#x9;&#x9;l0.179-0.852c-4.235,0.333-6.284,2.372-6.251,6.266v1.415l0.795-1.156c1.955-2.965,4.703-3.986,8.345-3.314&#xd;&#xa;&#x9;&#x9;c-0.087,0,0.483,0.228,0.483,0.228c2.912,0.64,3.737,0.854,4.429,4.158l0.149,0.716l0.522-0.495&#xd;&#xa;&#x9;&#x9;c1.877-1.809,1.506-4.272-1.308-7.222l0.132,0.364c0.366-1.438,0.89-2.357,1.55-2.478c0.753-0.177,2.29,0.183,4.921,3.277&#xd;&#xa;&#x9;&#x9;l0.638-0.495c-0.052-0.07-3.232-5.315-0.475-8.556c3-3.416,9.445-6.625,9.51-6.654l2.06-0.974l0.817-0.409l-0.833-0.427&#xd;&#xa;&#x9;&#x9;l-13.041-5.598l-0.647-0.35L-232.856,158.269z M-219.633,163.498l-2.05,0.982c-0.261,0.235-6.679,3.384-9.755,6.958&#xd;&#xa;&#x9;&#x9;c-3.27,3.651,0.288,9.332,0.461,9.537l0.585-0.525c-2.347-2.777-4.285-3.877-5.623-3.552c-1.069,0.229-1.838,1.293-2.291,3.163&#xd;&#xa;&#x9;&#x9;v0.151l0.11,0.234c3.604,3.818,1.921,5.5,1.316,6.048l0.775,0.182c-0.826-3.787-2.069-4.151-5.091-4.883l-0.482-0.166&#xd;&#xa;&#x9;&#x9;c-4.034-0.746-7.14,0.5-9.243,3.718l0.764,0.177c-0.03-3.376,1.704-5.157,5.457-5.393l1.261-0.068l-1.019-0.663&#xd;&#xa;&#x9;&#x9;c-2.757-1.84-5.483-1.542-8.161,0.813l0.638,0.58c2.04-3.834,3.324-3.668,5.636-3.331c0.843,0.098,1.654,0.212,2.634,0.212&#xd;&#xa;&#x9;&#x9;c2.6-0.114,6.423-3.591,9.225-8.396c2.867-4.798,2.464-10.851,2.464-11.009l-0.608,0.348l13.011,5.717L-219.633,163.498z" fill="#231F20"/>
  <path d="M-227.153,131.485c0,0,8.137-2.222,11.174,0.806c5.966-20.437-4.464-25.49-5.037-26.392&#xd;&#xa;&#x9;&#x9;c-0.662-2.392-4.369-13.783,10.506-27.045c14.936-13.376,22.999-21.725,32.174-30.741c16.198-15.959,28.422-46.342,29.261-48.15&#xd;&#xa;&#x9;&#x9;c6.91,16.414,0.624,31.631-25.189,65.286c14.065-13.904,23.985-28.198,29.662-42.882c1.092,15.893-5.794,31.653-20.76,47.28&#xd;&#xa;&#x9;&#x9;c0,0,10.62-9.654,15.448-17.012c4.851-7.288,8.559-15.31,8.559-15.31c2.539,12.973-6.73,29.847-27.591,50.601&#xd;&#xa;&#x9;&#x9;c12.936-10.3,22.946-20.633,30.266-30.985c-0.776,12.536-10.634,26.803-29.583,42.703c0,0,8.339-4.548,15.248-11.718&#xd;&#xa;&#x9;&#x9;c6.845-7.177,11.243-13.011,11.243-13.011c-3.322,15.598-13.509,28.438-30.445,38.441l8.745-3.555&#xd;&#xa;&#x9;&#x9;c-1.194,5.243-4.293,9.502-9.205,12.907l6.479-0.486c-2.11,4.426-5.297,7.842-9.673,10.249l6.723-1.139&#xd;&#xa;&#x9;&#x9;c-1.669,4.022-5.015,6.873-10.11,8.449l5.585,0.479c-2.734,4.272-6.855,6.694-12.275,7.147l4.414,2.617&#xd;&#xa;&#x9;&#x9;c-2.452,2.281-6.064,4.016-11.033,5.088c0,0,10.529,9.962,23.418,10.099c12.841,0.159,15.775-0.297,15.072,2.669&#xd;&#xa;&#x9;&#x9;c-0.722,2.904-10.417,8.744-10.417,8.744l5.562,0.336c-2.904,4.789-7.71,7.019-14.353,6.667l4.912,1.688&#xd;&#xa;&#x9;&#x9;c-2.757,2.687-7.443,4.123-12.589,3.91l1.205,2.944c-4.563,2.038-8.9,2.813-13.098,2.183l4.681,3.643&#xd;&#xa;&#x9;&#x9;c-10.184,0.819-18.111-0.663-23.788-4.488l0.582,1.704c-18.904-6.16-10.083-13.02-10.567-30.297&#xd;&#xa;&#x9;&#x9;c-5.535-1.737-10.248-5.096-14.014-10.023l-10.669,1.132l3.395-3.886c-3.81,1.747-8.121,2.098-13.068,0.836l4.285-3.665&#xd;&#xa;&#x9;&#x9;c-5.373,1.224-10.247,0.616-14.787-1.756l3.68-3.05c-5.418,0.926-8.263-1.324-11.259-4.244l4.354-2.678&#xd;&#xa;&#x9;&#x9;c-4.734-0.364-8.449-2.464-11.13-6.251l6.589,0.648c-4.666-1.858-8.037-5.333-10.231-10.457l6.289,0.288&#xd;&#xa;&#x9;&#x9;c-4.423-2.479-7.716-6.768-9.826-13.03c2.375,1.136,5.06,1.57,7.897,1.183c-7.937-5.187-13.818-12.469-17.594-21.875&#xd;&#xa;&#x9;&#x9;c4.026,3.604,9.658,7.46,16.874,11.554c-13.293-12.714-22.323-23.889-22.776-38.528c5.144,8.852,13.657,17.193,25.584,25.19&#xd;&#xa;&#x9;&#x9;c-23.801-22.319-34.166-41.379-30.993-57.015c2.533,8.703,6.621,16.49,12.252,23.155c-8.536-19.631-10.975-25.97-7.119-33.677&#xd;&#xa;&#x9;&#x9;l18.121,31.433c-16.93-29.665-18.061-47.124-4.96-51.242c0,0-3.863,10.122,14.312,33.646&#xd;&#xa;&#x9;&#x9;c18.121,23.595,23.783,37.696,24.547,41.856c0.753,4.08,2.661,12.721-2.472,20.031c-5.121,7.283-5.337,15.859,5.677,23.211&#xd;&#xa;&#x9;&#x9;C-237.97,125.065-227.153,131.485-227.153,131.485" fill="#112369"/>
  <path d="M-227.039,131.926L-227.039,131.926c0.069-0.031,7.878-2.114,10.784,0.669l0.497,0.546l0.213-0.735&#xd;&#xa;&#x9;&#x9;c2.251-7.756,2.453-14.26,0.536-19.362c-1.539-4.095-4.003-6.012-5.193-6.992c-0.232-0.156-0.437-0.327-0.491-0.395l0.052,0.14&#xd;&#xa;&#x9;&#x9;l-0.068-0.361c-2.445-9.072,1.114-17.901,10.471-26.312c11.777-10.441,19.236-17.885,26.487-25.01l5.684-5.669&#xd;&#xa;&#x9;&#x9;c13.867-13.658,25.011-37.917,29.137-47.757l0.235-0.548h-0.756c6.759,16.081,1.182,30.681-25.146,64.89l0.632,0.529&#xd;&#xa;&#x9;&#x9;c14.042-13.905,24.03-28.357,29.786-43.016l-0.866-0.114c1.128,15.643-5.841,31.365-20.54,46.909l0.559,0.631&#xd;&#xa;&#x9;&#x9;c0.103-0.095,10.707-9.777,15.574-17.088c4.703-7.239,8.433-15.315,8.433-15.346l-0.724-0.133&#xd;&#xa;&#x9;&#x9;c2.408,12.743-6.798,29.687-27.58,50.219l0.63,0.665c12.917-10.343,23.118-20.827,30.331-31.118l-0.78-0.222&#xd;&#xa;&#x9;&#x9;c-0.726,12.334-10.623,26.609-29.437,42.339l0.524,0.704c0.084-0.031,8.533-4.581,15.331-11.776&#xd;&#xa;&#x9;&#x9;c6.719-7.103,11.206-13.003,11.292-13.091l-0.794-0.349c-3.27,15.466-13.457,28.376-30.198,38.219l0.351,0.76l8.791-3.509&#xd;&#xa;&#x9;&#x9;l-0.608-0.498c-1.183,5.118-4.228,9.302-9.007,12.599l-1.255,0.913l1.472-0.152l6.555-0.394l-0.514-0.624&#xd;&#xa;&#x9;&#x9;c-1.969,4.273-5.24,7.663-9.453,10.023l0.259,0.79l6.71-1.158l-0.416-0.599c-1.585,3.934-4.942,6.67-9.832,8.236l0.061,0.874&#xd;&#xa;&#x9;&#x9;l5.594,0.464l-0.361-0.684c-2.536,4.157-6.643,6.409-11.928,6.92l-1.308,0.083l1.167,0.729l4.385,2.653l-0.054-0.676&#xd;&#xa;&#x9;&#x9;c-2.385,2.188-6.004,3.932-10.81,5.01l-0.833,0.152l0.608,0.563c0.114,0.122,10.814,10.038,23.696,10.205l4.681,0.047&#xd;&#xa;&#x9;&#x9;c6.117,0,9.234,0,9.912,0.941c0.171,0.107,0.239,0.425,0.061,1.095c-0.559,2.251-7.57,6.898-10.164,8.556l-1.266,0.67l1.437,0.098&#xd;&#xa;&#x9;&#x9;l5.554,0.212l-0.319-0.576c-2.823,4.653-7.556,6.828-14.035,6.526l-0.14,0.843l4.851,1.581l-0.113-0.66&#xd;&#xa;&#x9;&#x9;c-2.635,2.563-7.175,3.99-12.267,3.816h-0.631l0.289,0.579l1.107,2.904l0.224-0.533c-4.383,2.061-8.699,2.769-12.826,2.114&#xd;&#xa;&#x9;&#x9;l-1.649-0.259l1.338,1.034l4.704,3.642l0.236-0.706c-9.992,0.729-17.997-0.76-23.56-4.471l-1.041-0.691l0.403,1.162l0.592,1.756&#xd;&#xa;&#x9;&#x9;l0.476-0.569c-13.191-4.304-12.505-8.655-11.251-17.536c0.597-3.468,1.182-7.408,1.057-12.341v-0.26l-0.357-0.161&#xd;&#xa;&#x9;&#x9;c-5.41-1.719-10.076-5.064-13.762-9.87l-0.17-0.168l-0.209,0.039l-10.699,1.163l0.372,0.653l3.357-3.985l-0.522-0.667&#xd;&#xa;&#x9;&#x9;c-3.624,1.779-7.897,2.144-12.672,0.89l0.155,0.721l4.233-3.645l-0.399-0.753c-5.156,1.22-10.007,0.61-14.475-1.701l0.084,0.714&#xd;&#xa;&#x9;&#x9;l3.685-3.026l1.205-0.982l-1.524,0.19c-5.187,0.839-7.927-1.194-10.908-4.084l-0.08,0.594l4.411-2.615l1.19-0.738l-1.381-0.046&#xd;&#xa;&#x9;&#x9;c-4.615-0.35-8.316-2.387-10.863-6.053l-0.365,0.623l6.612,0.608l0.187-0.828c-4.569-1.712-7.913-5.188-9.974-10.184l-0.444,0.577&#xd;&#xa;&#x9;&#x9;l6.302,0.306l0.202-0.814c-4.274-2.365-7.521-6.684-9.547-12.756l-0.64,0.498c2.43,1.201,5.156,1.684,8.137,1.263l1.114-0.103&#xd;&#xa;&#x9;&#x9;l-0.966-0.707c-7.817-5.11-13.745-12.422-17.448-21.68l-0.704,0.491c4.106,3.585,9.783,7.494,16.992,11.552l0.507-0.681&#xd;&#xa;&#x9;&#x9;c-13.59-13.05-22.1-23.891-22.685-38.171l-0.752,0.243c5.163,8.791,13.837,17.331,25.741,25.323l0.461-0.705&#xd;&#xa;&#x9;&#x9;c-23.577-22.159-33.95-41.201-30.903-56.604l-0.735,0.02c2.495,8.768,6.688,16.63,12.305,23.429l0.715-0.522&#xd;&#xa;&#x9;&#x9;c-8.578-19.717-10.901-25.821-7.147-33.353l-0.769,0.03l18.174,31.416l0.724-0.38c-11.65-20.35-16.042-35.509-12.708-43.882&#xd;&#xa;&#x9;&#x9;c1.292-3.308,3.848-5.64,7.498-6.727l-0.522-0.586c-0.172,0.423-3.685,10.616,14.35,34.054&#xd;&#xa;&#x9;&#x9;c17.563,22.833,23.672,37.213,24.491,41.608l0.103,0.783c0.848,4.244,2.244,12.172-2.532,18.978&#xd;&#xa;&#x9;&#x9;c-2.841,4.129-3.947,8.239-3.19,12.171c0.76,4.261,3.851,8.231,9.008,11.66c10.924,7.286,21.763,13.719,21.794,13.719l0.229,0.196&#xd;&#xa;&#x9;&#x9;L-227.039,131.926z M-248.75,117.309c-5-3.285-7.897-7-8.708-11.133c-0.612-3.662,0.354-7.499,3.187-11.418&#xd;&#xa;&#x9;&#x9;c4.919-7.14,3.402-15.301,2.662-19.7l-0.153-0.668c-0.83-4.517-7.018-19.133-24.665-42.019&#xd;&#xa;&#x9;&#x9;C-294.11,9.358-290.688-0.82-290.681-0.903l0.341-0.803l-0.852,0.273c-3.955,1.228-6.65,3.665-8.058,7.305&#xd;&#xa;&#x9;&#x9;c-3.425,8.687,0.863,23.703,12.794,44.517l0.724-0.38l-18.182-31.489l-0.32-0.647l-0.396,0.647&#xd;&#xa;&#x9;&#x9;c-3.908,7.916-1.373,14.475,7.203,34.151l0.668-0.459c-5.528-6.635-9.688-14.421-12.238-23.049l-0.735,0.038&#xd;&#xa;&#x9;&#x9;c-3.216,15.723,7.244,34.996,31.057,57.422l0.505-0.647c-11.738-7.957-20.27-16.437-25.403-25.079l-0.825,0.217&#xd;&#xa;&#x9;&#x9;c0.537,14.548,9.229,25.635,22.95,38.843l0.506-0.71c-7.19-4.071-12.772-7.942-16.806-11.444l-0.714,0.409&#xd;&#xa;&#x9;&#x9;c3.798,9.466,9.848,16.874,17.768,22.141l0.202-0.794c-2.75,0.304-5.332-0.103-7.64-1.129l-0.847-0.392l0.304,0.868&#xd;&#xa;&#x9;&#x9;c2.103,6.277,5.433,10.794,9.974,13.272l0.22-0.767l-6.324-0.289l-0.638-0.029l0.233,0.623c2.167,5.163,5.691,8.813,10.535,10.592&#xd;&#xa;&#x9;&#x9;l0.14-0.818l-6.578-0.518l-0.935-0.123l0.559,0.759c2.727,3.881,6.544,6.1,11.463,6.411l-0.193-0.798l-4.399,2.645l-0.563,0.328&#xd;&#xa;&#x9;&#x9;l0.505,0.342c3.149,3.057,6.034,5.271,11.598,4.366l-0.313-0.709l-3.677,3.036l-0.514,0.394l0.631,0.259&#xd;&#xa;&#x9;&#x9;c4.539,2.503,9.631,3.087,14.966,1.756l-0.349-0.668l-4.182,3.642l-0.655,0.548l0.772,0.169c5,1.29,9.475,1.033,13.376-0.854&#xd;&#xa;&#x9;&#x9;l-0.567-0.699l-3.335,3.97l-0.722,0.854l1.075-0.124l10.665-1.14l-0.388-0.228c3.8,5.004,8.621,8.462,14.243,10.213l-0.296-0.396&#xd;&#xa;&#x9;&#x9;c0.132,4.823-0.453,8.813-0.966,12.266c-1.388,8.717-2.156,13.934,11.783,18.434l0.81,0.229l-0.229-0.767l-0.631-1.772&#xd;&#xa;&#x9;&#x9;l-0.623,0.525c5.741,3.862,13.847,5.451,24.081,4.576l1.026-0.106l-0.81-0.638l-4.658-3.706l-0.334,0.809&#xd;&#xa;&#x9;&#x9;c4.247,0.646,8.746-0.108,13.309-2.298l0.334-0.105l-0.114-0.35l-1.194-2.965l-0.396,0.638c5.358,0.184,10.061-1.36,12.841-4.166&#xd;&#xa;&#x9;&#x9;l0.522-0.38l-0.669-0.23l-4.851-1.657l-0.171,0.845c6.76,0.319,11.719-1.97,14.733-6.974l0.343-0.554l-0.663-0.069l-5.552-0.251&#xd;&#xa;&#x9;&#x9;l0.194,0.731c1.003-0.616,9.844-5.956,10.506-8.982c0.194-0.48,0.272-1.308-0.164-1.887c-0.913-1.209-3.543-1.263-10.537-1.292&#xd;&#xa;&#x9;&#x9;l-4.726-0.029c-12.514-0.122-23.011-9.87-23.122-9.924l-0.224,0.722c5.031-1.103,8.783-2.936,11.244-5.209l0.392-0.39l-0.437-0.356&#xd;&#xa;&#x9;&#x9;l-4.464-2.6l-0.141,0.813c5.555-0.51,9.777-2.949,12.601-7.377l0.358-0.609l-0.722-0.09l-5.545-0.395l0.077,0.821&#xd;&#xa;&#x9;&#x9;c5.171-1.621,8.654-4.548,10.388-8.715l0.296-0.716l-0.763,0.199l-6.765,1.047l0.334,0.838c4.361-2.418,7.677-5.955,9.848-10.434&#xd;&#xa;&#x9;&#x9;l0.296-0.607h-0.714l-6.494,0.41l0.288,0.836c4.921-3.407,8.13-7.878,9.327-13.135l0.252-0.833l-0.81,0.335l-8.746,3.505&#xd;&#xa;&#x9;&#x9;l0.425,0.783c16.957-10.046,27.227-23.034,30.583-38.716l-0.772-0.376c0,0.026-4.414,5.979-11.244,12.997&#xd;&#xa;&#x9;&#x9;c-6.736,7.018-14.958,11.581-15.083,11.625l0.49,0.711c18.985-15.904,29.016-30.418,29.685-42.992l0.068-1.543l-0.752,1.292&#xd;&#xa;&#x9;&#x9;c-7.259,10.225-17.423,20.642-30.271,30.845l0.577,0.653c20.963-20.777,30.274-37.907,27.761-50.996l-0.267-1.285l-0.544,1.228&#xd;&#xa;&#x9;&#x9;c-0.03,0.058-3.707,8.038-8.482,15.266c-4.772,7.179-15.277,16.779-15.331,16.915h-0.03l0.59,0.63&#xd;&#xa;&#x9;&#x9;c14.937-15.669,21.957-31.709,20.888-47.595l-0.878-0.123c-5.638,14.581-15.566,28.92-29.552,42.727l0.636,0.497&#xd;&#xa;&#x9;&#x9;c13.729-17.909,21.22-29.559,24.973-39.122c3.833-9.792,3.862-17.98,0.235-26.556l-0.371-0.936l-0.385,0.936l-0.282,0.578&#xd;&#xa;&#x9;&#x9;c-4.156,9.75-15.145,33.95-28.958,47.436l-5.662,5.625c-7.236,7.201-14.696,14.585-26.474,25.106&#xd;&#xa;&#x9;&#x9;c-9.556,8.604-13.247,17.693-10.715,27.13l0.076,0.341l0.073,0.039l0.03,0.071c0.053,0.157,0.289,0.317,0.582,0.591&#xd;&#xa;&#x9;&#x9;c1.164,0.912,3.521,2.741,4.977,6.664c1.792,4.921,1.62,11.217-0.582,18.807l0.722-0.198c-3.159-3.087-11.292-1.005-11.592-0.866&#xd;&#xa;&#x9;&#x9;h0.3C-227.039,131.119-237.917,124.593-248.75,117.309" fill="#231F20"/>
  <path d="M-256.879,127.12c0,0,1.479-10.495,10.418-11.552c8.153-0.919,27.931,16.085,33.571,17.027l-4.929,0.303&#xd;&#xa;&#x9;&#x9;l2.201,5.924c-1.408-2.244-3.159-3.43-5.253-3.534l3.052,4.76l-4.129-2.023l3.125,7.072l-6.729-3.363l1.775,6.283l-5.14-3.375&#xd;&#xa;&#x9;&#x9;l1.187,6.562l-6.34-4.692l2.045,7.789l-3.635-2.952l0.114,5.394c0,0-3.626-5.377-4.289-11.31&#xd;&#xa;&#x9;&#x9;c-0.802-6.052-2.726-13.344-5.631-10.31c-2.491,2.585-3.51,3.908-8.783,3.793l7.327-7.573c-5.953-0.222-10.395,2.92-13.285,9.468&#xd;&#xa;&#x9;&#x9;c-4.311-5.194-3.866-8.914,1.248-11.065C-259.442,127.538-258.692,126.648-256.879,127.12" fill="#FFC10E"/>
  <path d="M-256.435,127.148L-256.435,127.148c0-0.12,1.567-10.189,9.978-11.178&#xd;&#xa;&#x9;&#x9;c4.779-0.548,14.065,5.468,21.445,10.364c5.187,3.414,9.75,6.32,12.061,6.715l0.065-0.866l-4.931,0.297l-0.604,0.008l0.216,0.562&#xd;&#xa;&#x9;&#x9;l2.147,5.87l0.819-0.35c-1.495-2.387-3.404-3.573-5.598-3.733l-0.84-0.053l0.373,0.707l3.099,4.827l0.574-0.593l-4.111-2.022&#xd;&#xa;&#x9;&#x9;l-1.056-0.533l0.457,1.034l3.102,7.086l0.59-0.593l-6.734-3.346l-0.832-0.479l0.319,0.973l1.658,6.243l0.632-0.473l-5.111-3.313&#xd;&#xa;&#x9;&#x9;l-0.787-0.563l0.125,1.004l1.209,6.517l0.707-0.418l-6.347-4.685l-0.958-0.692l0.255,1.194l2.122,7.787l0.599-0.502l-3.606-2.911&#xd;&#xa;&#x9;&#x9;l-0.699-0.609v0.936l0.156,5.413l0.768-0.22c-0.091-0.083-3.518-5.36-4.274-11.264c-0.343-3.041-1.567-10.296-4.146-11.231&#xd;&#xa;&#x9;&#x9;c-0.7-0.258-1.422,0.024-2.193,0.724l-0.259,0.335c-2.201,2.295-3.337,3.49-8.16,3.393l0.289,0.699l7.333-7.544l0.586-0.706h-0.897&#xd;&#xa;&#x9;&#x9;c-6.08-0.267-10.729,3.065-13.704,9.68l0.729-0.105c-2.251-2.738-3.145-5.042-2.741-6.829c0.384-1.46,1.643-2.725,3.878-3.574&#xd;&#xa;&#x9;&#x9;l0.32-0.122l-0.061-0.289c-0.228-1.141-0.171-1.796,0.17-2.113c0.24-0.35,0.84-0.183,1.332-0.121l0.459,0.121L-256.435,127.148z&#xd;&#xa;&#x9;&#x9; M-259.081,129.37c-2.476,1.02-3.878,2.373-4.308,4.153c-0.55,2.053,0.429,4.638,2.867,7.619l0.43,0.472l0.255-0.616&#xd;&#xa;&#x9;&#x9;c2.868-6.38,7.094-9.475,12.92-9.257l-0.35-0.699l-7.266,7.567l-0.654,0.738l0.942,0.023c5.231,0.113,6.509-1.354,8.784-3.688&#xd;&#xa;&#x9;&#x9;l0.313-0.252c0.737-0.754,1.129-0.594,1.33-0.555c1.354,0.486,2.795,4.708,3.506,10.577c0.73,6.03,4.297,11.323,4.414,11.613&#xd;&#xa;&#x9;&#x9;l0.841,1.202l-0.052-1.522l-0.157-5.399l-0.676,0.306l3.643,2.965l1.019,0.821l-0.304-1.278l-2.023-7.748l-0.683,0.465l6.25,4.684&#xd;&#xa;&#x9;&#x9;l0.937,0.639l-0.217-1.124l-1.186-6.517l-0.707,0.403l5.148,3.404l0.942,0.609l-0.235-1.111l-1.813-6.25l-0.586,0.487l6.753,3.368&#xd;&#xa;&#x9;&#x9;l0.995,0.51l-0.437-1.088l-3.091-7.004l-0.597,0.548l4.125,2.038l1.354,0.685l-0.817-1.293l-3.092-4.806l-0.334,0.594&#xd;&#xa;&#x9;&#x9;c1.969,0.16,3.582,1.203,4.924,3.376l0.739-0.418l-2.21-5.85l-0.368,0.549l4.992-0.258l0.061-0.865&#xd;&#xa;&#x9;&#x9;c-2.179-0.39-6.852-3.348-11.757-6.603c-7.966-5.147-16.936-11.086-21.973-10.478c-9.145,1.049-10.766,11.788-10.818,11.923&#xd;&#xa;&#x9;&#x9;l0.586-0.381c-0.993-0.196-1.709-0.106-2.228,0.352c-0.556,0.547-0.638,1.414-0.328,2.843L-259.081,129.37z" fill="#231F20"/>
  <path d="M-250.161,128.191c-5.482,0.768-4.75-5.088,1.472-5.482C-253.95,125.432-252.503,126.876-250.161,128.191" fill="#FFFFFF"/>
  <path d="M-250.191,127.932c-1.418,0.249-2.608-0.145-3.179-0.784c-0.349-0.5-0.38-1.132-0.061-1.747&#xd;&#xa;&#x9;&#x9;c0.521-1.079,2.031-2.298,4.742-2.526l-0.125-0.371c-2.453,1.315-3.688,2.378-3.688,3.46c-0.02,0.928,1.103,1.695,2.225,2.342&#xd;&#xa;&#x9;&#x9;L-250.191,127.932z M-248.689,122.419c-2.92,0.259-4.578,1.536-5.202,2.77c-0.349,0.798-0.231,1.641,0.172,2.225&#xd;&#xa;&#x9;&#x9;c0.349,0.527,1.36,1.286,3.62,0.892l0.662-0.037l-0.574-0.327c-1.019-0.608-1.97-1.255-1.97-1.978c0-0.837,1.114-1.9,3.33-3.089&#xd;&#xa;&#x9;&#x9;L-248.689,122.419z" fill="#231F20"/>
  <path d="M-199.853,195.355c-9.498-4.729-13.83-8.465-13.16-14.229c-0.943-0.335-1.992-0.335-3.315,0&#xd;&#xa;&#x9;&#x9;C-216.245,189.873-210.887,194.631-199.853,195.355" fill="#FFFFFF"/>
  <path d="M-199.681,194.952c-10.128-5.021-13.494-8.547-12.863-13.778l0.007-0.32l-0.349-0.077&#xd;&#xa;&#x9;&#x9;c-0.981-0.427-2.167-0.427-3.582,0l-0.267,0.016v0.335c0.076,8.995,5.794,13.962,16.859,14.679L-199.681,194.952z&#xd;&#xa;&#x9;&#x9; M-216.245,181.569c1.301-0.366,2.236-0.366,3.1,0l-0.289-0.501c-0.745,6.348,4.613,10.349,13.418,14.661l0.187-0.792&#xd;&#xa;&#x9;&#x9;c-10.684-0.729-15.97-5.246-16.034-13.81L-216.245,181.569z" fill="#231F20"/>
  <path d="M-210.404,181.011c2.539,6.557,6.464,10.304,12.327,12.495c-1.293-5.445-4.042-9.111-7.188-12.624&#xd;&#xa;&#x9;&#x9;C-207.722,180.291-208.621,180.291-210.404,181.011" fill="#FFFFFF"/>
  <path d="M-210.829,181.173c2.555,6.455,6.393,10.418,12.56,12.654l0.78,0.332l-0.194-0.789&#xd;&#xa;&#x9;&#x9;c-1.225-5.263-3.761-8.868-7.229-12.746l-0.133-0.106l-0.107-0.039c-2.57-0.599-3.566-0.599-5.396,0.146l-0.399,0.167&#xd;&#xa;&#x9;&#x9;L-210.829,181.173z M-205.597,181.173c3.426,3.771,5.879,7.338,7.125,12.396l0.552-0.526c-5.925-2.214-9.701-5.939-12.07-12.16&#xd;&#xa;&#x9;&#x9;l-0.319,0.533c1.738-0.647,2.546-0.647,4.999-0.077L-205.597,181.173z" fill="#231F20"/>
  <path d="M-197.054,177.233c0.437-1.042,1.383-1.506,2.608-2.03c5.989,5.286,12.273,8.425,19.624,10.196&#xd;&#xa;&#x9;&#x9;c-1.012,2.169-5.092,2.435-8.338,1.156C-190.084,183.468-194.81,179.484-197.054,177.233" fill="#FFFFFF"/>
  <path d="M-196.663,177.447c0.357-0.882,1.168-1.36,2.387-1.826l-0.372-0.121&#xd;&#xa;&#x9;&#x9;c5.849,5.277,12.087,8.479,19.749,10.396l-0.335-0.632c-0.786,1.718-4.502,2.166-7.772,0.927c-7.365-3.256-12.079-7.521-13.83-9.23&#xd;&#xa;&#x9;&#x9;L-196.663,177.447z M-183.309,186.937c3.341,1.338,7.71,1.109,8.855-1.308l0.194-0.486l-0.474-0.138&#xd;&#xa;&#x9;&#x9;c-7.438-1.771-13.613-4.942-19.365-10.069l-0.176-0.196l-0.231,0.098c-1.278,0.396-2.369,0.89-2.989,2.244l-0.104,0.212&#xd;&#xa;&#x9;&#x9;l0.172,0.274C-195.667,179.256-190.895,183.576-183.309,186.937" fill="#231F20"/>
  <path d="M-192.077,173.841c0.061-0.943,0.638-1.648,1.707-2.175c8.308,3.127,16.268,5.331,24.016,6.737&#xd;&#xa;&#x9;&#x9;c-0.906,1.811-2.859,2.967-5.86,3.209C-176.875,181.461-183.48,178.868-192.077,173.841" fill="#FFFFFF"/>
  <path d="M-191.685,173.88c0.073-0.793,0.518-1.385,1.521-1.817h-0.289c8.255,3.134,16.332,5.397,23.993,6.736&#xd;&#xa;&#x9;&#x9;l-0.235-0.608c-0.894,1.743-2.692,2.785-5.559,2.982h0.087c-4.604-0.159-11.254-2.724-19.733-7.643L-191.685,173.88z&#xd;&#xa;&#x9;&#x9; M-172.129,182.009c3.076-0.213,5.171-1.446,6.19-3.438l0.267-0.487l-0.594-0.083c-7.639-1.376-15.761-3.643-23.898-6.721&#xd;&#xa;&#x9;&#x9;l-0.201-0.092l-0.133,0.092c-1.286,0.539-2.004,1.421-2.064,2.554v0.297l0.202,0.167c8.692,4.928,15.374,7.575,20.145,7.712h0.05&#xd;&#xa;&#x9;&#x9;H-172.129z" fill="#231F20"/>
  <path d="M-188.734,169.492c0.282-1.11,1.136-1.971,2.653-2.798c7.229,1.521,16.122,2.037,26.563,1.788&#xd;&#xa;&#x9;&#x9;c-0.403,2.439-2.157,4.236-5.226,5.359C-173.427,173.78-181.4,172.344-188.734,169.492" fill="#FFFFFF"/>
  <path d="M-188.342,169.584c0.224-0.973,1.048-1.826,2.444-2.496h-0.243c7.205,1.46,16.182,2.07,26.624,1.826&#xd;&#xa;&#x9;&#x9;l-0.403-0.569c-0.452,2.295-2.05,4.067-5.007,5.072h0.179c-8.612-0.062-16.562-1.582-23.822-4.336L-188.342,169.584z&#xd;&#xa;&#x9;&#x9; M-164.601,174.313c3.121-1.216,5.084-3.162,5.505-5.765l0.149-0.538l-0.571,0.03c-10.389,0.251-19.335-0.352-26.483-1.744h-0.14&#xd;&#xa;&#x9;&#x9;h-0.172c-1.589,0.792-2.483,1.917-2.832,3.151l-0.095,0.296l0.399,0.143c7.311,2.829,15.418,4.365,24.092,4.426h0.095&#xd;&#xa;&#x9;&#x9;L-164.601,174.313L-164.601,174.313z" fill="#231F20"/>
  <path d="M-203.076,180.154c0.912-1.156,2.429-1.491,3.621-1.491l15.574,12.776c0,0-5.449,2.288-9.319,0.577&#xd;&#xa;&#x9;&#x9;C-195.252,191.029-201.271,181.011-203.076,180.154" fill="#FFFFFF"/>
  <path d="M-202.722,180.45c0.981-1.247,2.741-1.369,3.269-1.369l-0.263-0.115l15.567,12.762l0.105-0.701&#xd;&#xa;&#x9;&#x9;c-0.06,0.015-5.373,2.252-8.985,0.595c-0.974-0.496-3.129-3.516-5.046-6.128c-2.369-3.286-3.839-5.294-4.798-5.704L-202.722,180.45&#xd;&#xa;&#x9;&#x9;z M-193.354,192.375c3.938,1.801,9.377-0.479,9.64-0.579l0.623-0.257l-0.499-0.496l-15.596-12.76l-0.117-0.051h-0.149&#xd;&#xa;&#x9;&#x9;c-0.753,0-2.714,0.173-3.908,1.648l-0.373,0.409l0.481,0.259c0.765,0.335,2.781,3.026,4.468,5.469&#xd;&#xa;&#x9;&#x9;C-196.616,188.988-194.563,191.801-193.354,192.375" fill="#231F20"/>
  <path d="M-221.776,168.292l0.615,3.222l3.027-4.212l-0.692,4.655l3.03-3.742l-0.593,4.13l3.507-3.173l-1.293,3.728&#xd;&#xa;&#x9;&#x9;l4.369-1.657c0,0-6.167,3.209-8.621,6.991c-3.255,5.011,1.487,7.291,1.487,7.291c-2.459,2.851-3.349-3.15-6.012-1.758l-2.749,3.416&#xd;&#xa;&#x9;&#x9;c2.291,1.645,2.966,4.357,2.024,8.168c0.065-3.163-1.019-4.959-3.332-5.506c-2.228,1.087-3.209,2.653-3.1,4.941&#xd;&#xa;&#x9;&#x9;c-1.729-1.618-1.692-3.833,0.123-6.632c-4.235-0.112-6.813,1.293-7.894,4.275c-1.403-3.741,1.68-6.03,8.962-7.878&#xd;&#xa;&#x9;&#x9;C-223.411,179.97-222.585,175.614-221.776,168.292" fill="#FFC10E"/>
  <path d="M-222.213,168.351l0.532,3.257l0.286,1.003l0.579-0.844l3.068-4.214l-0.772-0.357l-0.741,4.73l-0.27,1.489&#xd;&#xa;&#x9;&#x9;l1.011-1.157l3.037-3.833l-0.764-0.272l-0.559,4.037l-0.133,1.163l0.825-0.742l3.574-3.104l-0.631-0.472l-1.449,3.68l-0.239,0.836&#xd;&#xa;&#x9;&#x9;l0.848-0.273l4.369-1.672l-0.341-0.731c-0.252,0.169-6.339,3.377-8.794,7.125c-1.058,1.742-1.422,3.339-1.048,4.753&#xd;&#xa;&#x9;&#x9;c0.615,2.16,2.608,3.194,2.695,3.194l-0.117-0.623c-0.385,0.351-0.735,0.623-0.967,0.623c-0.483,0-0.996-0.593-1.528-1.216&#xd;&#xa;&#x9;&#x9;c-0.825-1.004-1.936-2.152-3.412-1.324l-0.145,0.055l-0.011,0.09l-2.714,3.339l-0.282,0.349l0.407,0.319&#xd;&#xa;&#x9;&#x9;c2.134,1.483,2.745,4.061,1.829,7.703l0.771,0.084c0.145-3.331-1.045-5.302-3.653-5.947h-0.11l-0.101,0.044&#xd;&#xa;&#x9;&#x9;c-2.399,1.164-3.498,2.982-3.341,5.339l0.662-0.317c-1.509-1.499-1.44-3.447,0.259-5.994l0.351-0.652h-0.669&#xd;&#xa;&#x9;&#x9;c-4.457-0.259-7.257,1.307-8.403,4.472h0.862c-0.474-1.125-0.474-2.069,0-2.891c0.942-1.842,3.78-3.209,8.582-4.458h0.149&#xd;&#xa;&#x9;&#x9;l0.022-0.029c5.794-4.761,6.559-9.413,7.326-16.563h-0.851V168.351z M-229.065,184.1c-5.187,1.376-8.098,2.882-9.126,4.897&#xd;&#xa;&#x9;&#x9;c-0.505,1.064-0.571,2.251-0.118,3.588l0.452,1.034l0.412-1.034c1.008-2.806,3.373-4.113,7.46-3.946l-0.328-0.639&#xd;&#xa;&#x9;&#x9;c-1.873,2.928-1.912,5.27-0.105,7.088l0.833,0.722l-0.065-1.041c-0.172-2.107,0.787-3.521,2.791-4.548l-0.228,0.046&#xd;&#xa;&#x9;&#x9;c2.071,0.435,3.099,2.16,2.977,5.081l0.81,0.144c1.088-4.039,0.286-6.959-2.19-8.602l0.103,0.563l2.81-3.354l-0.155,0.053&#xd;&#xa;&#x9;&#x9;c0.87-0.488,1.487,0.106,2.353,1.202c0.635,0.705,1.3,1.336,2.164,1.336c0.582,0.054,1.084-0.195,1.567-0.789l0.327-0.427&#xd;&#xa;&#x9;&#x9;l-0.459-0.297c-0.022-0.015-1.737-0.919-2.182-2.652c-0.343-1.187-0.046-2.594,0.912-4.077c2.334-3.605,8.41-6.783,8.494-6.843&#xd;&#xa;&#x9;&#x9;l-0.083,0.06l-0.319-0.807l-4.361,1.634l0.609,0.511l1.292-3.665l-0.673-0.496l-3.555,3.111l0.737,0.425l0.483-4.167l0.288-1.521&#xd;&#xa;&#x9;&#x9;l-0.973,1.225l-3.099,3.78l0.787,0.319l0.753-4.661l-0.771-0.298l-3.099,4.229l0.763,0.196l-0.585-3.223h-0.848&#xd;&#xa;&#x9;&#x9;c-0.738,6.95-1.524,11.482-7.022,15.945L-229.065,184.1z" fill="#231F20"/>
  <path d="M-190.567,92.116c0,0-3.707,5.292-2.695,7.44c0.904,2.113,2.665,6.456,0.639,14.574&#xd;&#xa;&#x9;&#x9;c-2.024,8.153-4.081,10.753-4.431,13.018c-0.373,2.275-3.417,15.241-3.417,15.241s5.512-8.305,5.512-11.057&#xd;&#xa;&#x9;&#x9;c0-2.754-0.414-2.069,1.034-5.977c1.396-3.833,6.324-9.05,5.468-15.206c-0.81-6.205-2.57-10.163-2.438-13.083&#xd;&#xa;&#x9;&#x9;C-190.769,94.241-190.567,92.116-190.567,92.116" fill="#FFFFFF"/>
  <path d="M-190.94,91.885c-0.327,0.558-3.818,5.565-2.726,7.786c1.106,2.632,2.436,6.807,0.63,14.384&#xd;&#xa;&#x9;&#x9;c-1.24,4.853-2.422,7.658-3.331,9.765c-0.615,1.37-1.068,2.343-1.156,3.301c-0.335,2.189-3.417,15.133-3.417,15.179l0.778,0.35&#xd;&#xa;&#x9;&#x9;c0.289-0.35,5.602-8.42,5.602-11.315c0-0.588-0.022-1.003-0.022-1.338c-0.043-1.263-0.065-1.536,0.996-4.471&#xd;&#xa;&#x9;&#x9;c0.483-1.079,1.167-2.42,1.978-3.713c1.821-3.254,4.19-7.308,3.611-11.832c-0.396-2.847-0.989-5.289-1.517-7.35&#xd;&#xa;&#x9;&#x9;c-0.571-2.312-0.989-4.034-0.883-5.491c0.125-2.896,0.267-4.999,0.267-4.999l0.17-1.596L-190.94,91.885z M-191.267,97.07&#xd;&#xa;&#x9;&#x9;c-0.125,1.607,0.327,3.464,0.897,5.775c0.537,2.079,1.095,4.399,1.571,7.326c0.452,4.156-1.659,7.897-3.567,11.168&#xd;&#xa;&#x9;&#x9;c-0.802,1.416-1.502,2.646-1.985,3.885c-1.107,3.063-1.107,3.354-1.077,4.814v1.293c0,2.189-3.886,8.607-5.456,10.92l0.849,0.273&#xd;&#xa;&#x9;&#x9;c0.125-0.576,3.014-13.033,3.373-15.323c0.155-0.844,0.528-1.801,1.121-3.05c0.784-1.977,2.088-4.957,3.293-9.885&#xd;&#xa;&#x9;&#x9;c1.978-7.862,0.559-12.262-0.64-14.917c-0.729-1.536,1.658-5.554,2.726-6.968L-191,92.094&#xd;&#xa;&#x9;&#x9;C-191,92.094-191.163,94.241-191.267,97.07" fill="#231F20"/>
  <path d="M-254.852,20.337c0.459-0.498,0.459-1.346,0.103-2.399c-0.233-0.841-0.535-1.37-0.942-1.791&#xd;&#xa;&#x9;&#x9;c-0.403-0.349-0.965-0.477-1.791-0.255c-0.277,0.136-0.522,0.255-0.582,0.389c-0.18,0.102-0.18,0.288-0.117,0.513l1.501,4.532&#xd;&#xa;&#x9;&#x9;C-255.692,20.974-255.053,20.709-254.852,20.337 M-259.141,27.899c0.528-0.228,0.896-0.416,1.076-0.672&#xd;&#xa;&#x9;&#x9;c0.06-0.271,0.023-0.748-0.18-1.316l-2.353-7.427c-0.296-0.608-0.498-0.965-0.795-1.099c-0.179-0.065-0.558-0.065-1.16,0&#xd;&#xa;&#x9;&#x9;l-0.125-0.391l5.365-1.749c1.479-0.474,2.658-0.601,3.529-0.429c0.913,0.239,1.502,0.928,1.946,2.118&#xd;&#xa;&#x9;&#x9;c0.172,0.521,0.233,1.034,0.016,1.722c-0.163,0.544-0.491,1.026-1.049,1.539c-0.476,0.407-0.913,0.685-1.404,0.906&#xd;&#xa;&#x9;&#x9;c-0.474,0.225-1.224,0.483-2.235,0.809l1.03,3.093c0.217,0.692,0.427,1.064,0.67,1.136c0.277,0.14,0.707,0.133,1.315,0l0.126,0.341&#xd;&#xa;&#x9;&#x9;l-5.625,1.83L-259.141,27.899z" fill="#FFFFFF"/>
  <path d="M-245.499,24.378v-0.4c0.483-0.139,0.772-0.209,1.013-0.38c0.289-0.228,0.341-0.624,0.289-1.099&#xd;&#xa;&#x9;&#x9;l-1.302-8.457c-0.103-0.497-0.327-0.833-0.668-0.979c-0.289-0.046-0.608-0.088-1.186-0.046l-0.038-0.415l10.11-1.612l0.528,3.528&#xd;&#xa;&#x9;&#x9;l-0.414,0.083c-0.411-1.057-0.894-1.821-1.526-2.14c-0.528-0.297-1.536-0.335-2.957-0.083c-0.524,0.015-0.912,0.098-1.023,0.247&#xd;&#xa;&#x9;&#x9;c-0.141,0.125-0.141,0.349-0.114,0.711l0.647,4.057c1.019-0.118,1.643-0.438,1.912-0.959c0.399-0.376,0.524-1.106,0.547-2.103&#xd;&#xa;&#x9;&#x9;l0.395-0.016l0.974,5.848l-0.444,0.03c-0.351-0.958-0.662-1.543-1.073-1.947c-0.483-0.312-1.19-0.374-2.205-0.282l0.677,4.22&#xd;&#xa;&#x9;&#x9;c0.026,0.357,0.164,0.585,0.376,0.685c0.202,0.147,0.604,0.147,1.278,0.033c1.011-0.188,1.931-0.539,2.567-1.114&#xd;&#xa;&#x9;&#x9;c0.653-0.467,1.155-1.402,1.483-2.688l0.483-0.091l-0.095,3.761L-245.499,24.378z" fill="#FFFFFF"/>
  <path d="M-230.659,21.854c0.483-0.063,0.818-0.11,1.075-0.167c0.32-0.193,0.458-0.566,0.458-1.086v-8.515&#xd;&#xa;&#x9;&#x9;c0-0.597-0.136-0.9-0.458-1.095c-0.235-0.056-0.593-0.11-1.075-0.157v-0.474h6.168v0.474c-0.7,0-1.205,0.101-1.411,0.287&#xd;&#xa;&#x9;&#x9;c-0.209,0.133-0.357,0.54-0.357,1.3v8.365c0,0.336,0.125,0.653,0.274,0.771c0.224,0.13,0.597,0.187,1.235,0.187&#xd;&#xa;&#x9;&#x9;c1.009,0,1.948-0.251,2.688-0.662c0.693-0.513,1.285-1.464,1.859-2.764h0.461l-0.7,4.035h-10.216v-0.499H-230.659z" fill="#FFFFFF"/>
  <path d="M-215.799,22.249c0.537,0.099,0.863,0.099,1.099-0.058c0.372-0.11,0.631-0.452,0.683-0.942l0.997-8.494&#xd;&#xa;&#x9;&#x9;c0.072-0.522-0.016-0.919-0.351-1.091c-0.147-0.21-0.498-0.289-1.041-0.411v-0.378l6.148,0.735l-0.015,0.475&#xd;&#xa;&#x9;&#x9;c-0.544-0.087-0.938,0-1.199,0.038c-0.364,0.11-0.536,0.43-0.624,0.935l-1.075,8.527c-0.03,0.444,0.042,0.787,0.28,0.984&#xd;&#xa;&#x9;&#x9;c0.267,0.202,0.705,0.364,1.248,0.455l-0.08,0.453l-6.073-0.78v-0.448H-215.799z" fill="#FFFFFF"/>
  <path d="M-202.251,12.626l10.231,2.913l-1.011,3.456l-0.483-0.118c0.255-1.316-0.08-2.273-0.697-2.965&#xd;&#xa;&#x9;&#x9;c-0.292-0.283-0.87-0.616-1.749-0.912l-2.563,8.981c-0.164,0.669-0.164,1.018-0.08,1.309c0.229,0.292,0.646,0.528,1.3,0.778&#xd;&#xa;&#x9;&#x9;l-0.128,0.389l-6.004-1.73l0.156-0.452c0.59,0.22,1.11,0.22,1.36,0.087c0.282-0.156,0.468-0.552,0.647-1.13l2.601-8.916&#xd;&#xa;&#x9;&#x9;c-0.849-0.267-1.487-0.358-2.034-0.185c-0.894,0.185-1.608,0.847-2.084,2.064l-0.491-0.133L-202.251,12.626z" fill="#FFFFFF"/>
  <path d="M-184.829,26.564l0.11-4.445l-0.11-0.086l-3.164,3.108L-184.829,26.564z M-192.445,27.245&#xd;&#xa;&#x9;&#x9;c0.429,0.136,0.833,0.098,1.174-0.126c0.251-0.126,0.703-0.467,1.308-1.054l7.524-7.223l0.402,0.171l-0.141,10.143&#xd;&#xa;&#x9;&#x9;c0,1.069,0,1.833,0.065,2.191c0.046,0.372,0.343,0.608,0.715,0.771l-0.259,0.41l-5.152-2.304l0.114-0.444&#xd;&#xa;&#x9;&#x9;c0.586,0.25,0.898,0.341,1.178,0.341c0.187,0,0.312-0.179,0.468-0.468c0.044-0.076,0.068-0.285,0.068-0.582&#xd;&#xa;&#x9;&#x9;c0.046-0.172,0.046-0.421,0.046-0.6l0.063-1.19l-3.638-1.589c-0.522,0.551-0.826,0.87-1.011,0.996&#xd;&#xa;&#x9;&#x9;c-0.336,0.335-0.571,0.653-0.616,0.794c-0.083,0.296-0.03,0.515,0.259,0.757c0.084,0.147,0.358,0.233,0.729,0.411l-0.171,0.504&#xd;&#xa;&#x9;&#x9;l-3.263-1.517L-192.445,27.245z" fill="#FFFFFF"/>
  <path d="M-135.617,74.755c0.164,0.448,0.38,0.76,0.537,0.84c0.242,0.296,0.718,0.296,1.194,0.054l7.863-3.322&#xd;&#xa;&#x9;&#x9;c0.415-0.206,0.685-0.478,0.75-0.818c0.046-0.212-0.065-0.571-0.259-1.069l0.483-0.17l2.32,5.483l-0.427,0.224&#xd;&#xa;&#x9;&#x9;c-0.242-0.459-0.429-0.771-0.615-0.912c-0.28-0.293-0.653-0.293-1.167-0.062l-3.334,1.433l1.642,3.894l3.388-1.418&#xd;&#xa;&#x9;&#x9;c0.429-0.225,0.704-0.497,0.704-0.894c0.077-0.221-0.016-0.571-0.19-1.091l0.399-0.233l2.414,5.658l-0.483,0.119&#xd;&#xa;&#x9;&#x9;c-0.251-0.418-0.421-0.796-0.593-0.862c-0.255-0.229-0.669-0.251-1.121-0.03l-7.901,3.308c-0.438,0.259-0.718,0.53-0.756,0.906&#xd;&#xa;&#x9;&#x9;c-0.024,0.224,0.038,0.544,0.231,0.972l-0.483,0.187l-2.296-5.544l0.444-0.103c0.187,0.372,0.445,0.75,0.653,0.862&#xd;&#xa;&#x9;&#x9;c0.233,0.243,0.617,0.243,1.076,0.057l3.753-1.621l-1.668-3.908l-3.71,1.616c-0.491,0.236-0.72,0.548-0.78,0.935&#xd;&#xa;&#x9;&#x9;c0,0.259,0.083,0.587,0.231,1.023l-0.381,0.217l-2.346-5.506L-135.617,74.755z" fill="#FFFFFF"/>
  <path d="M-124.377,96.363l3.681-2.521l-0.125-0.202l-4.328-0.593L-124.377,96.363z M-129.487,90.705&#xd;&#xa;&#x9;&#x9;c0.11,0.457,0.431,0.692,0.779,0.955c0.358,0.057,0.834,0.229,1.642,0.312l10.309,1.647l0.133,0.44l-8.212,6.013&#xd;&#xa;&#x9;&#x9;c-0.898,0.623-1.472,1.121-1.753,1.373c-0.133,0.304-0.327,0.661-0.133,1.041l-0.453,0.103l-1.308-5.615l0.421-0.09&#xd;&#xa;&#x9;&#x9;c0.172,0.611,0.305,0.931,0.425,1.102c0.096,0.155,0.313,0.213,0.617,0.155c0.103-0.029,0.35-0.155,0.594-0.292&#xd;&#xa;&#x9;&#x9;c0.117-0.058,0.304-0.214,0.491-0.347l0.98-0.7l-0.936-3.813c-0.699-0.14-1.198-0.164-1.433-0.229c-0.49-0.06-0.847-0.06-1.026,0&#xd;&#xa;&#x9;&#x9;c-0.194,0.065-0.358,0.259-0.388,0.608c-0.034,0.187,0.03,0.521,0.03,0.894l-0.384,0.171l-0.81-3.539L-129.487,90.705z" fill="#FFFFFF"/>
  <path d="M-126.309,106.712c0.099,0.549,0.185,0.98,0.372,1.193c0.201,0.233,0.707,0.297,1.331,0.297l7.848-0.258&#xd;&#xa;&#x9;&#x9;c0.646-0.039,1.076-0.149,1.32-0.438c0.122-0.246,0.155-0.537,0.209-1.213h0.492l0.125,5.684c0.06,1.193-0.065,2.152-0.212,2.897&#xd;&#xa;&#x9;&#x9;c-0.465,1.444-1.407,2.145-2.677,2.234c-0.959,0.063-1.722-0.334-2.296-1.033c-0.438-0.487-0.72-1.034-0.853-1.742l-4.89,3.855&#xd;&#xa;&#x9;&#x9;c-0.194,0.062-0.247,0.168-0.278,0.266c-0.073,0.13-0.073,0.221-0.073,0.402l-0.417,0.018l-0.064-3.627l5.326-3.822l-0.022-0.459&#xd;&#xa;&#x9;&#x9;l-3.442,0.098c-0.639,0.042-1.031,0.179-1.255,0.4c-0.209,0.163-0.358,0.588-0.358,1.228h-0.467l-0.118-5.963L-126.309,106.712z&#xd;&#xa;&#x9;&#x9; M-119.917,113.385c0.395,0.456,1.041,0.685,2.164,0.668c0.646,0,1.209-0.136,1.644-0.334c0.673-0.336,1-0.944,0.904-1.823&#xd;&#xa;&#x9;&#x9;c0-0.433-0.076-0.744-0.209-0.931c-0.11-0.11-0.296-0.132-0.547-0.132l-4.475,0.119&#xd;&#xa;&#x9;&#x9;C-120.438,112.054-120.26,112.921-119.917,113.385" fill="#FFFFFF"/>
  <path d="M-122.898,129.749l4.251-1.366v-0.093l-3.91-1.978L-122.898,129.749z M-125.959,122.708&#xd;&#xa;&#x9;&#x9;c0,0.394,0.164,0.744,0.544,1.11c0.187,0.09,0.662,0.457,1.419,0.837l9.205,4.89l-0.064,0.494l-9.72,3.011&#xd;&#xa;&#x9;&#x9;c-1.072,0.259-1.733,0.517-2.054,0.737c-0.326,0.236-0.522,0.465-0.522,0.89l-0.481-0.06l0.612-5.682l0.43,0.022&#xd;&#xa;&#x9;&#x9;c-0.038,0.587,0,1.014,0,1.174c0.039,0.175,0.282,0.303,0.57,0.356c0.129,0,0.312,0,0.685-0.099c0.147,0,0.372-0.083,0.607-0.145&#xd;&#xa;&#x9;&#x9;l1.112-0.326l0.392-4c-0.633-0.336-1.153-0.562-1.286-0.562c-0.453-0.251-0.765-0.358-1.026-0.358&#xd;&#xa;&#x9;&#x9;c-0.236-0.055-0.423,0.084-0.586,0.402c-0.087,0.184-0.087,0.487-0.185,0.912l-0.416-0.077l0.351-3.558L-125.959,122.708z" fill="#FFFFFF"/>
  <path d="M-124.206,146.421c0.209,0.615,0.862,1.176,2.008,1.467c0.75,0.22,1.38,0.32,1.962,0.159&#xd;&#xa;&#x9;&#x9;c0.555-0.159,0.928-0.563,1.157-1.263c0.144-0.363,0.186-0.654,0.144-0.806c-0.144-0.107-0.254-0.283-0.448-0.32l-4.597-1.331&#xd;&#xa;&#x9;&#x9;C-124.258,145.387-124.355,146.047-124.206,146.421 M-128.107,138.633c-0.087,0.577-0.087,0.974,0.024,1.229&#xd;&#xa;&#x9;&#x9;c0.186,0.32,0.521,0.488,1.136,0.67l7.562,2.113c0.529,0.229,1.057,0.229,1.251,0.062c0.243-0.107,0.453-0.441,0.623-0.981&#xd;&#xa;&#x9;&#x9;l0.437,0.084l-1.524,5.452c-0.339,1.497-0.92,2.531-1.662,3.154c-0.653,0.607-1.578,0.767-2.764,0.402&#xd;&#xa;&#x9;&#x9;c-0.513-0.082-0.972-0.402-1.399-0.897c-0.437-0.447-0.679-1.058-0.764-1.771c-0.037-0.555-0.037-1.117,0.038-1.704&#xd;&#xa;&#x9;&#x9;c0.164-0.469,0.289-1.261,0.578-2.266l-3.164-0.829c-0.616-0.267-1.071-0.281-1.323-0.114c-0.233,0.144-0.491,0.503-0.654,1.072&#xd;&#xa;&#x9;&#x9;l-0.444-0.039l1.677-5.756L-128.107,138.633z" fill="#FFFFFF"/>
  <path d="M-131.095,158.428l4.457,0.228l0.015-0.16l-3.046-3.149L-131.095,158.428z M-131.64,150.846&#xd;&#xa;&#x9;&#x9;c-0.194,0.418-0.133,0.768,0.031,1.261c0.162,0.169,0.513,0.608,1.076,1.22l7.132,7.679l-0.212,0.411l-10.091-0.364&#xd;&#xa;&#x9;&#x9;c-1.175,0-1.898,0-2.282,0.136c-0.388,0-0.601,0.229-0.81,0.594l-0.412-0.169l2.366-5.187l0.506,0.169&#xd;&#xa;&#x9;&#x9;c-0.194,0.594-0.357,0.913-0.357,1.103c0,0.205,0.163,0.327,0.405,0.418c0.149,0.153,0.396,0.176,0.663,0.19&#xd;&#xa;&#x9;&#x9;c0.164,0,0.357,0,0.597,0.036l1.193,0.024l1.628-3.613c-0.528-0.518-0.856-0.806-1.032-0.965c-0.285-0.403-0.535-0.633-0.751-0.633&#xd;&#xa;&#x9;&#x9;c-0.229-0.121-0.445-0.022-0.727,0.169c-0.142,0.229-0.312,0.522-0.543,0.836l-0.328-0.213l1.479-3.208L-131.64,150.846z" fill="#FFFFFF"/>
  <path d="M-138.582,165.371c-0.351,0.555-0.414,1.033-0.351,1.323c0.062,0.305,0.289,0.5,0.617,0.827l6.992,4.664&#xd;&#xa;&#x9;&#x9;c0.787-0.161,1.251-0.229,1.422-0.259c0.175-0.032,0.354-0.169,0.502-0.318l0.341,0.221l-2.087,3.178l-9.556,0.843l-0.044,0.077&#xd;&#xa;&#x9;&#x9;l4.334,2.937c0.429,0.342,0.875,0.533,1.208,0.533c0.327-0.145,0.7-0.421,1.159-0.943l0.373,0.288l-2.187,3.178l-0.296-0.288&#xd;&#xa;&#x9;&#x9;c0.171-0.501,0.296-0.853,0.296-1.118c-0.08-0.298-0.282-0.542-0.728-0.829l-8.634-5.841l0.267-0.425l12.178-1.071l0.084-0.161&#xd;&#xa;&#x9;&#x9;l-5.731-3.892c-0.454-0.289-0.802-0.435-1.099-0.435c-0.459,0-0.855,0.356-1.271,0.873l-0.403-0.182l2.257-3.407L-138.582,165.371z&#xd;&#xa;&#x9;&#x9;" fill="#FFFFFF"/>
  <path d="M-306.51,190.481l-3.746-4.958l0.209-0.124l0.259,0.23c0.255,0.381,0.498,0.562,0.662,0.67&#xd;&#xa;&#x9;&#x9;c0.179,0.105,0.373,0.105,0.551,0.105c0.149-0.105,0.577-0.336,1.091-0.729l4.711-3.529c0.802-0.623,1.353-1.132,1.518-1.476&#xd;&#xa;&#x9;&#x9;c0.183-0.387,0.296-0.738,0.251-1.187c-0.068-0.403-0.251-0.821-0.593-1.293c-0.396-0.516-0.886-0.941-1.331-1.064&#xd;&#xa;&#x9;&#x9;c-0.572-0.166-1.064-0.229-1.597-0.106c-0.573,0.169-1.354,0.623-2.311,1.325l-3.91,2.986c-0.461,0.306-0.715,0.587-0.834,0.814&#xd;&#xa;&#x9;&#x9;c-0.103,0.228-0.125,0.435-0.103,0.607c0.039,0.289,0.22,0.595,0.476,0.974l-0.209,0.213l-2.517-3.27l0.243-0.214l0.14,0.214&#xd;&#xa;&#x9;&#x9;c0.202,0.272,0.425,0.456,0.692,0.532c0.193,0.129,0.492,0.129,0.78,0c0.209-0.029,0.498-0.188,0.871-0.494l3.647-2.708&#xd;&#xa;&#x9;&#x9;c1.11-0.874,1.955-1.376,2.575-1.628c0.585-0.203,1.278-0.203,2.213,0.024c0.802,0.273,1.604,0.853,2.392,1.887&#xd;&#xa;&#x9;&#x9;c0.583,0.836,0.958,1.55,1.064,2.173c0.18,0.875,0.141,1.543-0.148,2.237c-0.246,0.54-0.81,1.155-1.608,1.718l-4.688,3.589&#xd;&#xa;&#x9;&#x9;c-0.554,0.41-0.866,0.639-0.905,0.821c-0.148,0.166-0.148,0.32-0.148,0.579c0.038,0.213,0.273,0.472,0.529,0.927L-306.51,190.481z" fill="#FFFFFF"/>
  <path d="M-317.411,175.089l3.62-8.715l-4.476,2.463c-0.685,0.395-1.022,0.708-1.153,1.026&#xd;&#xa;&#x9;&#x9;c-0.118,0.373-0.064,0.844,0.278,1.5l-0.278,0.149l-1.923-3.513l0.289-0.145c0.357,0.403,0.536,0.692,0.73,0.785&#xd;&#xa;&#x9;&#x9;c0.156,0.089,0.388,0.143,0.601,0.143c0.262-0.054,0.582-0.235,1.107-0.524l8.71-4.807l0.171,0.287l-4.794,11.879l6.643-3.664&#xd;&#xa;&#x9;&#x9;c0.624-0.35,0.972-0.717,0.972-1.097c0.099-0.418,0-0.753-0.147-1.124l-0.171-0.252l0.319-0.145l1.993,3.667l-0.296,0.212&#xd;&#xa;&#x9;&#x9;c-0.262-0.562-0.608-0.881-0.958-1.033c-0.342-0.121-0.809,0-1.384,0.366l-7.376,4.075l-0.172,0.359&#xd;&#xa;&#x9;&#x9;c-0.186,0.339-0.261,0.688-0.209,0.872c0,0.228,0.06,0.433,0.209,0.807l-0.289,0.198L-317.411,175.089z" fill="#FFFFFF"/>
  <path d="M-314.187,155.576l0.296-0.137l2.513,5.741l-0.304,0.068l-0.156-0.363&#xd;&#xa;&#x9;&#x9;c-0.114-0.289-0.285-0.503-0.536-0.649c-0.052-0.121-0.289-0.22-0.513-0.22c-0.148,0-0.513,0.16-1.042,0.456l-7.175,3.133&#xd;&#xa;&#x9;&#x9;c-0.625,0.32-0.981,0.462-1.065,0.563c-0.117,0.176-0.141,0.32-0.205,0.54c-0.015,0.207,0.063,0.465,0.205,0.8l0.164,0.395&#xd;&#xa;&#x9;&#x9;l-0.305,0.169l-2.516-5.707l0.272-0.188l0.149,0.306c0.164,0.38,0.319,0.569,0.528,0.706c0.133,0.136,0.305,0.195,0.522,0.195&#xd;&#xa;&#x9;&#x9;c0.133,0,0.51-0.151,1.045-0.38l7.203-3.208c0.578-0.245,0.92-0.441,0.98-0.516c0.104-0.094,0.235-0.306,0.259-0.596&#xd;&#xa;&#x9;&#x9;c0-0.213-0.024-0.441-0.194-0.754L-314.187,155.576z" fill="#FFFFFF"/>
  <path d="M-329.593,146.329l0.224-0.107c0.243,0.443,0.601,0.655,1.084,0.882c0.38,0.169,1.106,0.32,2.353,0.457&#xd;&#xa;&#x9;&#x9;l9.974,1.103l0.095,0.204l-7.794,6.869c-1.007,0.813-1.476,1.399-1.56,1.603c-0.194,0.168-0.194,0.564-0.157,0.96l-0.289,0.13&#xd;&#xa;&#x9;&#x9;l-1.837-5.452l0.319-0.092l0.118,0.213c0.171,0.457,0.293,0.784,0.521,0.943c0.133,0.122,0.304,0.122,0.444,0.122&#xd;&#xa;&#x9;&#x9;c0.099-0.09,0.209-0.169,0.335-0.281c0.099-0.031,0.456-0.327,0.939-0.738l4.894-4.274l-5.811-0.639&#xd;&#xa;&#x9;&#x9;c-0.669-0.075-1.151-0.134-1.44-0.122c-0.179,0-0.328,0.047-0.521,0.122c-0.117,0.015-0.289,0.137-0.376,0.23&#xd;&#xa;&#x9;&#x9;c-0.122,0.205-0.147,0.335-0.147,0.508c-0.06,0.284,0.026,0.609,0.147,1.027l-0.312,0.09L-329.593,146.329z" fill="#FFFFFF"/>
  <path d="M-330.133,139.681l4.755-0.913l-0.037-0.249c-0.179-0.782-0.476-1.3-1.013-1.467&#xd;&#xa;&#x9;&#x9;c-0.544-0.236-1.324-0.337-2.19-0.236l-0.068-0.341l6.113-1.186l0.1,0.334c-0.64,0.19-1.183,0.457-1.589,0.747&#xd;&#xa;&#x9;&#x9;c-0.396,0.317-0.628,0.652-0.694,0.911c-0.068,0.427-0.068,0.746,0,1.325l3.328-0.654c0.625-0.136,1.073-0.214,1.145-0.243&#xd;&#xa;&#x9;&#x9;c0.163-0.121,0.327-0.228,0.349-0.486c0.045-0.054,0.045-0.358,0-0.641l-0.164-0.754c-0.225-1.04-0.586-1.937-1.254-2.454&#xd;&#xa;&#x9;&#x9;c-0.655-0.609-1.517-0.959-2.662-1.018v-0.338l3.83-0.122l2.003,10.063l-0.351,0.142l-0.087-0.371&#xd;&#xa;&#x9;&#x9;c-0.038-0.382-0.148-0.587-0.334-0.86c-0.187-0.145-0.304-0.162-0.468-0.243c-0.162-0.046-0.513,0-1.159,0.099l-7.703,1.542&#xd;&#xa;&#x9;&#x9;c-0.552,0.063-0.901,0.184-0.933,0.213c-0.197,0.122-0.384,0.229-0.429,0.411c-0.125,0.289-0.125,0.61-0.11,0.975l0.11,0.401&#xd;&#xa;&#x9;&#x9;l-0.288,0.039l-1.94-9.855l3.483-0.655l0.024,0.288c-0.818,0.35-1.388,0.702-1.649,1.034c-0.328,0.457-0.522,0.961-0.586,1.522&#xd;&#xa;&#x9;&#x9;c-0.03,0.304,0.065,0.944,0.259,1.832L-330.133,139.681z" fill="#FFFFFF"/>
  <path d="M-326.058,125.963l3.271-0.107c0.661-0.082,1.069-0.106,1.247-0.168c0.194-0.104,0.319-0.287,0.438-0.455&#xd;&#xa;&#x9;&#x9;c0.084-0.189,0.122-0.577,0.084-1.087l0.357-0.083l0.163,6.182h-0.312c-0.032-0.525-0.084-0.973-0.171-1.163&#xd;&#xa;&#x9;&#x9;c-0.122-0.146-0.278-0.243-0.388-0.382c-0.171-0.122-0.638-0.122-1.332-0.122l-7.646,0.356c-0.647,0-1.091,0.024-1.254,0.054&#xd;&#xa;&#x9;&#x9;c-0.179,0.169-0.312,0.284-0.388,0.502c-0.087,0.259-0.132,0.576-0.132,1.148h-0.305l-0.193-5.558&#xd;&#xa;&#x9;&#x9;c-0.024-1.445,0-2.556,0.193-3.271c0.179-0.606,0.498-1.155,1.065-1.58c0.517-0.457,1.171-0.685,1.832-0.685&#xd;&#xa;&#x9;&#x9;c0.916-0.047,1.627,0.228,2.224,0.82c0.408,0.38,0.711,0.973,0.897,1.657l3.94-2.981c0.461-0.402,0.866-0.684,0.928-0.853&#xd;&#xa;&#x9;&#x9;c0.194-0.197,0.233-0.487,0.281-0.881h0.366l0.084,3.803l-5.287,4.076L-326.058,125.963z M-331.929,126.16l5.163-0.182v-0.54&#xd;&#xa;&#x9;&#x9;c0-0.783-0.096-1.453-0.25-1.803c-0.172-0.38-0.483-0.761-0.811-0.927c-0.46-0.205-0.958-0.306-1.563-0.306&#xd;&#xa;&#x9;&#x9;c-0.935,0.017-1.543,0.306-2.05,0.7c-0.341,0.473-0.599,1.173-0.521,2.086L-331.929,126.16z" fill="#FFFFFF"/>
  <path d="M-332.483,107.876l3.932,0.162l-0.024,0.403c-1.019,0.087-1.813,0.46-2.475,1.092&#xd;&#xa;&#x9;&#x9;c-0.67,0.615-1.022,1.369-1.076,2.095c-0.061,0.623,0.095,1.119,0.373,1.415c0.282,0.403,0.608,0.586,1.069,0.677&#xd;&#xa;&#x9;&#x9;c0.296,0,0.522-0.091,0.756-0.197c0.262-0.092,0.537-0.351,0.802-0.746c0.239-0.259,0.612-0.879,1.183-1.81&#xd;&#xa;&#x9;&#x9;c0.765-1.366,1.533-2.252,2.179-2.749c0.695-0.378,1.308-0.594,2.102-0.526c0.959,0.103,1.826,0.51,2.548,1.321&#xd;&#xa;&#x9;&#x9;c0.616,0.832,0.935,1.912,0.825,3.041c-0.031,0.39-0.031,0.755-0.209,1.119c-0.088,0.275-0.179,0.67-0.476,1.164&#xd;&#xa;&#x9;&#x9;c-0.132,0.304-0.228,0.541-0.228,0.707c0,0.13,0,0.32,0.141,0.487c0.125,0.167,0.259,0.296,0.474,0.472v0.319l-4.459-0.319&#xd;&#xa;&#x9;&#x9;l0.007-0.388c1.248-0.106,2.259-0.525,2.944-1.278c0.75-0.615,1.161-1.414,1.198-2.281c0.056-0.627-0.077-1.128-0.433-1.579&#xd;&#xa;&#x9;&#x9;c-0.32-0.49-0.765-0.668-1.247-0.668c-0.202,0-0.522,0-0.78,0.116c-0.306,0.109-0.552,0.384-0.795,0.676&#xd;&#xa;&#x9;&#x9;c-0.304,0.328-0.597,0.829-1.065,1.567c-0.608,1.007-1.068,1.752-1.552,2.17c-0.411,0.518-0.849,0.837-1.308,1.073&#xd;&#xa;&#x9;&#x9;c-0.474,0.183-1.041,0.288-1.517,0.205c-0.943-0.024-1.73-0.442-2.369-1.194c-0.639-0.699-0.95-1.612-0.84-2.684&#xd;&#xa;&#x9;&#x9;c0.062-0.358,0.104-0.769,0.201-1.104c0.126-0.282,0.267-0.647,0.476-1.03c0.216-0.357,0.343-0.653,0.343-0.803&#xd;&#xa;&#x9;&#x9;c0.03-0.148,0-0.27-0.126-0.357c-0.052-0.061-0.285-0.172-0.692-0.304L-332.483,107.876z" fill="#FFFFFF"/>
  <path d="M-319.418,100.138l0.282,0.079l-0.959,6.229l-0.296-0.038l0.072-0.395c0-0.342,0-0.647-0.072-0.928&#xd;&#xa;&#x9;&#x9;c-0.11-0.079-0.224-0.265-0.411-0.388c-0.095-0.042-0.501-0.148-1.084-0.229l-7.712-1.212c-0.597-0.11-1.003-0.148-1.205-0.11&#xd;&#xa;&#x9;&#x9;c-0.11,0-0.335,0.155-0.437,0.288c-0.118,0.201-0.247,0.442-0.312,0.787l-0.053,0.433l-0.319-0.106l1.011-6.186l0.312,0.011&#xd;&#xa;&#x9;&#x9;l-0.083,0.448c-0.079,0.376-0.079,0.623,0.083,0.853c0.065,0.121,0.172,0.307,0.407,0.442c0.083,0.023,0.425,0.185,1.003,0.205&#xd;&#xa;&#x9;&#x9;l7.824,1.28c0.563,0.119,0.974,0.119,1.085,0.104c0.185-0.038,0.394-0.156,0.505-0.32c0.155-0.193,0.239-0.468,0.273-0.779&#xd;&#xa;&#x9;&#x9;L-319.418,100.138z" fill="#FFFFFF"/>
  <path d="M-327.765,85.586l3.099,0.754l-0.024,0.356c-0.722,0-1.3,0.05-1.657,0.229&#xd;&#xa;&#x9;&#x9;c-0.46,0.156-0.833,0.365-1.099,0.693c-0.172,0.208-0.319,0.528-0.43,1.06l-0.231,0.834l8.939,2.414&#xd;&#xa;&#x9;&#x9;c0.551,0.186,0.988,0.287,1.136,0.217c0.118-0.03,0.259-0.148,0.492-0.258c0.148-0.187,0.259-0.492,0.334-0.832l0.164-0.373&#xd;&#xa;&#x9;&#x9;l0.304,0.139l-1.673,6.05l-0.267-0.069l0.062-0.369c0.087-0.364,0.119-0.653,0.042-0.816c-0.042-0.202-0.104-0.373-0.319-0.522&#xd;&#xa;&#x9;&#x9;c-0.087-0.075-0.416-0.247-0.99-0.349l-8.951-2.392l-0.286,0.78c-0.212,0.841-0.118,1.395,0.038,1.855&#xd;&#xa;&#x9;&#x9;c0.395,0.628,0.974,1.136,1.774,1.48l-0.131,0.333l-3.1-0.847L-327.765,85.586z" fill="#FFFFFF"/>
  <path d="M-316.313,79.587l-1.643,3.966l0.981,0.833c0.235,0.342,0.535,0.543,0.765,0.624&#xd;&#xa;&#x9;&#x9;c0.341,0.132,0.608,0.132,0.817-0.08c0.141-0.122,0.396-0.52,0.707-1.025l0.312,0.155l-1.539,3.699l-0.296-0.139&#xd;&#xa;&#x9;&#x9;c0.083-0.389,0.052-0.857-0.103-1.278c-0.209-0.233-0.608-0.756-1.293-1.533l-7.217-7.501l0.068-0.239l10.686-0.365&#xd;&#xa;&#x9;&#x9;c1.004-0.008,1.636-0.065,2-0.221c0.235-0.14,0.422-0.312,0.608-0.59l0.282,0.083l-2.175,5.327l-0.308-0.132l0.114-0.157&#xd;&#xa;&#x9;&#x9;c0.141-0.411,0.228-0.771,0.194-0.972c-0.053-0.156-0.145-0.335-0.308-0.411c-0.088,0-0.205-0.042-0.362-0.042h-0.662h-1.627&#xd;&#xa;&#x9;&#x9;V79.587z M-316.997,79.63l-4.54,0.122l3.121,3.247L-316.997,79.63z" fill="#FFFFFF"/>
  <path d="M-317.514,62.396l3.537,1.83l-0.186,0.304c-0.943-0.335-1.818-0.335-2.644-0.045&#xd;&#xa;&#x9;&#x9;c-0.916,0.308-1.524,0.791-1.875,1.444c-0.296,0.51-0.452,1.008-0.273,1.504c0.053,0.468,0.336,0.811,0.749,1.014&#xd;&#xa;&#x9;&#x9;c0.216,0.11,0.418,0.179,0.669,0.179c0.312-0.039,0.729-0.104,1.106-0.312c0.312-0.218,0.886-0.584,1.845-1.214&#xd;&#xa;&#x9;&#x9;c1.239-0.89,2.334-1.394,3.114-1.537c0.726-0.125,1.425,0,2.133,0.366c0.852,0.51,1.449,1.262,1.729,2.316&#xd;&#xa;&#x9;&#x9;c0.282,1.012,0.045,2.023-0.474,3.068c-0.247,0.356-0.461,0.684-0.685,0.894c-0.267,0.259-0.521,0.554-0.959,0.862&#xd;&#xa;&#x9;&#x9;c-0.319,0.251-0.474,0.407-0.528,0.601c-0.058,0.103-0.08,0.288-0.08,0.497c0.022,0.229,0.08,0.431,0.259,0.587l-0.179,0.302&#xd;&#xa;&#x9;&#x9;l-3.908-2.159l0.147-0.357c1.199,0.444,2.343,0.504,3.271,0.132c0.958-0.289,1.62-0.849,2.015-1.567&#xd;&#xa;&#x9;&#x9;c0.305-0.589,0.46-1.144,0.243-1.673c-0.056-0.537-0.341-0.849-0.763-1.099c-0.218-0.099-0.476-0.239-0.795-0.239&#xd;&#xa;&#x9;&#x9;c-0.289,0-0.639,0.149-0.988,0.263c-0.334,0.198-0.89,0.491-1.62,0.984c-1.003,0.67-1.714,1.142-2.311,1.3&#xd;&#xa;&#x9;&#x9;c-0.578,0.293-1.128,0.464-1.649,0.464c-0.586,0-1.023-0.171-1.537-0.464c-0.803-0.459-1.346-1.114-1.574-2.058&#xd;&#xa;&#x9;&#x9;c-0.225-0.958-0.137-1.901,0.4-2.88c0.162-0.328,0.373-0.647,0.645-0.849c0.187-0.296,0.507-0.46,0.795-0.757&#xd;&#xa;&#x9;&#x9;c0.372-0.224,0.597-0.395,0.685-0.536c0.084-0.156,0.084-0.243,0-0.422c0-0.078-0.148-0.313-0.399-0.507L-317.514,62.396z" fill="#FFFFFF"/>
  <path d="M591.228,73.01c1.709,4.547,3.719,8.166,6.022,10.871c4.016,4.712,8.998,7.067,14.959,7.067&#xd;&#xa;&#x9;&#x9;c3.225,0,6.008-1.017,8.365-3.06c2.351-2.046,3.529-4.897,3.529-8.556c0-3.296-1.188-6.16-3.552-8.596&#xd;&#xa;&#x9;&#x9;c-1.552-1.551-4.808-3.871-9.773-6.969l-8.631-5.392c-2.602-1.644-4.679-3.308-6.222-4.989c-2.866-3.201-4.304-6.721-4.304-10.572&#xd;&#xa;&#x9;&#x9;c0-5.111,1.696-9.361,5.096-12.757c3.39-3.396,7.893-5.091,13.49-5.091c2.312,0,5.086,0.567,8.324,1.704&#xd;&#xa;&#x9;&#x9;c3.25,1.136,5.103,1.703,5.568,1.703c1.247,0,2.113-0.292,2.594-0.887c0.47-0.592,0.851-1.433,1.109-2.521h2.076l2.228,21.553&#xd;&#xa;&#x9;&#x9;h-2.434c-1.644-6.494-4.282-11.028-7.924-13.594c-3.642-2.569-7.24-3.854-10.798-3.854c-2.77,0-5.188,0.817-7.247,2.445&#xd;&#xa;&#x9;&#x9;c-2.055,1.635-3.088,3.893-3.088,6.798c0,2.601,0.79,4.828,2.373,6.673c1.574,1.874,4.03,3.84,7.353,5.878l8.891,5.491&#xd;&#xa;&#x9;&#x9;c5.566,3.425,9.484,6.574,11.764,9.438c2.252,2.905,3.376,6.332,3.376,10.289c0,5.3-2,9.734-6,13.288&#xd;&#xa;&#x9;&#x9;c-4.006,3.56-9.117,5.344-15.346,5.344c-3.141,0-6.401-0.599-9.817-1.785c-3.407-1.182-5.362-1.772-5.856-1.772&#xd;&#xa;&#x9;&#x9;c-1.186,0-1.984,0.358-2.403,1.08c-0.403,0.735-0.677,1.502-0.807,2.327h-2.227l-3.013-21.551h2.323V73.01z" fill="#112369"/>
  <path d="M671.107,26.393v1.878c-3.886,0.267-6.403,0.92-7.56,1.955c-1.156,1.034-1.734,3.418-1.734,7.141v32.379&#xd;&#xa;&#x9;&#x9;c0,5.3,0.729,9.438,2.176,12.402c2.707,5.407,7.831,8.107,15.375,8.107c8.274,0,13.825-2.765,16.654-8.3&#xd;&#xa;&#x9;&#x9;c1.584-3.1,2.374-7.875,2.374-14.333V41.276c0-5.505-0.654-8.955-1.978-10.357c-1.316-1.399-3.819-2.281-7.513-2.646v-1.878h23.435&#xd;&#xa;&#x9;&#x9;v1.878c-3.923,0.431-6.485,1.38-7.688,2.843c-1.201,1.463-1.801,4.852-1.801,10.16v26.347c0,6.983-1.081,12.44-3.217,16.36&#xd;&#xa;&#x9;&#x9;c-3.954,7.218-11.468,10.821-22.541,10.821c-10.942,0-18.387-3.56-22.342-10.677c-2.145-3.82-3.217-8.858-3.217-15.121V37.367&#xd;&#xa;&#x9;&#x9;c0-3.692-0.562-6.057-1.705-7.088c-1.13-1.042-3.61-1.709-7.441-2.008v-1.878H671.107z" fill="#112369"/>
  <path d="M715.259,91.497c3.885-0.365,6.304-1.115,7.263-2.268c0.959-1.144,1.437-3.817,1.437-8.011V37.367&#xd;&#xa;&#x9;&#x9;c0-3.56-0.547-5.886-1.612-6.993c-1.073-1.107-3.437-1.805-7.087-2.103v-1.875h28.023c5.831,0,10.691,0.738,14.576,2.216&#xd;&#xa;&#x9;&#x9;c7.385,2.806,11.072,7.951,11.072,15.453c0,5.037-1.634,8.897-4.912,11.602c-3.284,2.695-7.742,4.471-13.368,5.328l20.851,25.695&#xd;&#xa;&#x9;&#x9;c1.292,1.566,2.571,2.71,3.864,3.436c1.277,0.715,2.928,1.169,4.941,1.371v1.877h-16.303l-25.323-31.189l-4.441,0.243v19.949&#xd;&#xa;&#x9;&#x9;c0,3.746,0.562,6.123,1.704,7.119c1.131,1.004,3.61,1.673,7.435,2.001v1.877h-28.121v-1.877H715.259z M749.859,56.4&#xd;&#xa;&#x9;&#x9;c5.369-2.206,8.053-6.345,8.053-12.438c0-5.856-2.402-9.852-7.217-11.985c-2.571-1.152-5.978-1.73-10.236-1.73&#xd;&#xa;&#x9;&#x9;c-2.857,0-4.615,0.207-5.263,0.617c-0.64,0.414-0.959,1.373-0.959,2.889v24.92C741.517,58.409,746.726,57.652,749.859,56.4" fill="#112369"/>
  <path d="M783.129,93.374v-1.877c2.601-0.296,4.556-1.278,5.856-2.944c1.307-1.666,3.536-6.221,6.7-13.667&#xd;&#xa;&#x9;&#x9;l21.088-49.68h2.015l25.223,57.388c1.683,3.803,3.02,6.152,4.022,7.058c1.014,0.901,2.7,1.517,5.075,1.845v1.877h-25.751v-1.877&#xd;&#xa;&#x9;&#x9;c2.957-0.263,4.866-0.583,5.727-0.959c0.851-0.38,1.285-1.309,1.285-2.78c0-0.498-0.169-1.361-0.495-2.608&#xd;&#xa;&#x9;&#x9;c-0.335-1.247-0.79-2.563-1.384-3.939l-4.052-9.733h-26.677c-2.632,6.62-4.206,10.662-4.724,12.125&#xd;&#xa;&#x9;&#x9;c-0.5,1.457-0.753,2.608-0.753,3.464c0,1.703,0.685,2.891,2.069,3.544c0.858,0.394,2.472,0.685,4.836,0.886v1.877H783.129z&#xd;&#xa;&#x9;&#x9; M826.727,67.375l-11.599-27.877l-11.657,27.877H826.727z" fill="#112369"/>
  <path d="M856.521,91.497c4.067-0.234,6.701-0.863,7.895-1.892c1.192-1.037,1.795-3.436,1.795-7.205V37.371&#xd;&#xa;&#x9;&#x9;c0-3.724-0.601-6.123-1.795-7.191c-1.193-1.071-3.827-1.71-7.895-1.907v-1.875h28.351c8.099,0,14.523,1.3,19.284,3.91&#xd;&#xa;&#x9;&#x9;c4.753,2.6,7.133,7.086,7.133,13.455c0,4.78-1.667,8.412-4.987,10.886c-1.889,1.417-4.701,2.585-8.457,3.514&#xd;&#xa;&#x9;&#x9;c4.646,1.122,8.615,2.981,11.908,5.605c3.301,2.616,4.943,6.278,4.943,10.989c0,7.897-3.65,13.33-10.96,16.3&#xd;&#xa;&#x9;&#x9;c-3.853,1.539-8.591,2.319-14.227,2.319h-32.988V91.497z M894.581,54.766c4.282-1.978,6.426-5.529,6.426-10.646&#xd;&#xa;&#x9;&#x9;c0-6.042-2.471-10.122-7.413-12.231c-2.738-1.153-6.89-1.739-12.466-1.739c-2.099,0-3.406,0.186-3.893,0.543&#xd;&#xa;&#x9;&#x9;c-0.5,0.369-0.745,1.358-0.745,2.979v22.878l9.643-0.149C889.524,56.34,892.338,55.793,894.581,54.766 M897.844,86.701&#xd;&#xa;&#x9;&#x9;c3.491-2.011,5.24-5.867,5.24-11.565c0-5.669-2.045-9.536-6.129-11.616c-4.084-2.079-9.294-3.114-15.619-3.114h-2.943&#xd;&#xa;&#x9;&#x9;c-0.41,0-1.042-0.019-1.902-0.048v25.209c0,1.742,0.496,2.871,1.483,3.384c0.99,0.509,3.278,0.765,6.867,0.765&#xd;&#xa;&#x9;&#x9;C890.018,89.713,894.354,88.708,897.844,86.701" fill="#112369"/>
  <path d="M923.753,93.374v-1.877c2.601-0.296,4.556-1.278,5.855-2.944c1.31-1.666,3.535-6.221,6.7-13.667&#xd;&#xa;&#x9;&#x9;l21.089-49.68h2.013l25.225,57.389c1.682,3.803,3.02,6.152,4.022,7.058c1.012,0.901,2.7,1.517,5.072,1.845v1.877h-25.747v-1.877&#xd;&#xa;&#x9;&#x9;c2.957-0.263,4.867-0.583,5.724-0.958c0.854-0.38,1.286-1.309,1.286-2.781c0-0.497-0.168-1.361-0.495-2.608&#xd;&#xa;&#x9;&#x9;c-0.335-1.247-0.792-2.563-1.383-3.939l-4.053-9.733h-26.678c-2.632,6.619-4.205,10.662-4.723,12.125&#xd;&#xa;&#x9;&#x9;c-0.501,1.457-0.753,2.608-0.753,3.464c0,1.703,0.685,2.891,2.068,3.544c0.859,0.394,2.472,0.684,4.835,0.886v1.877L923.753,93.374&#xd;&#xa;&#x9;&#x9;L923.753,93.374z M967.35,67.375l-11.596-27.877l-11.657,27.877H967.35z" fill="#112369"/>
  <path d="M1016.619,26.393v1.878c-2.372-0.061-4.15,0.118-5.338,0.544c-1.187,0.429-1.779,1.35-1.779,2.776&#xd;&#xa;&#x9;&#x9;c0,0.426,0.099,0.962,0.297,1.6c0.195,0.647,0.639,1.491,1.337,2.548l14.898,21.844l14.529-22.193&#xd;&#xa;&#x9;&#x9;c0.594-0.951,0.981-1.746,1.166-2.369c0.173-0.628,0.267-1.088,0.267-1.384c0-1.447-0.77-2.406-2.321-2.866&#xd;&#xa;&#x9;&#x9;c-0.919-0.296-2.503-0.46-4.746-0.498v-1.878h22.123v1.878c-2.037,0.103-3.863,0.706-5.476,1.828&#xd;&#xa;&#x9;&#x9;c-2.502,1.746-5.316,4.993-8.44,9.742l-14.95,22.833v19.688c0,3.916,0.63,6.36,1.901,7.326c1.27,0.972,4.113,1.569,8.53,1.806&#xd;&#xa;&#x9;&#x9;v1.874h-30.896v-1.874c4.578-0.266,7.431-0.951,8.524-2.05c1.104-1.099,1.659-3.856,1.659-8.264V63.618l-13.247-19.428&#xd;&#xa;&#x9;&#x9;c-4.579-6.689-7.797-10.981-9.644-12.878c-1.839-1.895-4.083-2.905-6.722-3.039v-1.878h28.327V26.393z" fill="#112369"/>
  <path d="M1049.448,93.374v-1.877c2.602-0.296,4.556-1.278,5.855-2.944c1.308-1.666,3.536-6.221,6.701-13.667&#xd;&#xa;&#x9;&#x9;l21.088-49.68h2.015l25.223,57.388c1.684,3.803,3.02,6.152,4.023,7.058c1.014,0.901,2.699,1.517,5.073,1.845v1.877h-25.749v-1.877&#xd;&#xa;&#x9;&#x9;c2.958-0.263,4.867-0.583,5.726-0.959c0.853-0.38,1.284-1.309,1.284-2.78c0-0.498-0.166-1.361-0.494-2.608&#xd;&#xa;&#x9;&#x9;c-0.333-1.247-0.792-2.563-1.385-3.939l-4.05-9.733h-26.677c-2.633,6.62-4.207,10.662-4.715,12.125&#xd;&#xa;&#x9;&#x9;c-0.512,1.457-0.762,2.608-0.762,3.464c0,1.703,0.685,2.891,2.068,3.544c0.858,0.394,2.472,0.685,4.836,0.886v1.877H1049.448z&#xd;&#xa;&#x9;&#x9; M1093.045,67.375l-11.597-27.877l-11.657,27.877H1093.045z" fill="#112369"/>
  <path d="M633.44,148.321c3.854,1.088,6.017,1.627,6.472,1.627c0.961,0,1.862-0.258,2.725-0.791&#xd;&#xa;&#x9;&#x9;c0.858-0.525,1.45-1.337,1.779-2.464h2.128l0.935,22.73h-2.318c-1.354-4.51-3.125-8.16-5.293-10.922&#xd;&#xa;&#x9;&#x9;c-4.151-5.209-9.732-7.81-16.754-7.81c-7.087,0-12.882,2.806-17.375,8.403c-4.502,5.605-6.746,13.308-6.746,23.127&#xd;&#xa;&#x9;&#x9;c0,9.034,2.366,16.242,7.087,21.635c4.729,5.376,10.722,8.076,17.969,8.076c5.241,0,10.067-1.247,14.479-3.75&#xd;&#xa;&#x9;&#x9;c2.531-1.42,5.322-3.559,8.355-6.434l1.88,1.888c-2.243,2.828-5.026,5.321-8.35,7.465c-5.674,3.621-11.818,5.432-18.44,5.432&#xd;&#xa;&#x9;&#x9;c-10.874,0-19.507-3.483-25.9-10.433c-5.894-6.427-8.845-14.449-8.845-24.077c0-9.839,3.11-18.12,9.339-24.806&#xd;&#xa;&#x9;&#x9;c6.563-7.025,15.096-10.525,25.604-10.525C625.829,146.693,629.586,147.226,633.44,148.321" fill="#112369"/>
  <path d="M653.714,214.851v-1.877c2.603-0.296,4.556-1.277,5.855-2.943c1.308-1.665,3.536-6.223,6.701-13.665&#xd;&#xa;&#x9;&#x9;l21.088-49.681h2.016l25.225,57.391c1.679,3.804,3.018,6.144,4.022,7.057c1.01,0.898,2.698,1.515,5.071,1.842v1.877h-25.749v-1.877&#xd;&#xa;&#x9;&#x9;c2.959-0.259,4.869-0.579,5.727-0.959c0.852-0.381,1.285-1.307,1.285-2.783c0-0.494-0.168-1.353-0.495-2.601&#xd;&#xa;&#x9;&#x9;c-0.336-1.247-0.792-2.571-1.383-3.938l-4.053-9.735h-26.678c-2.631,6.617-4.205,10.663-4.714,12.124&#xd;&#xa;&#x9;&#x9;c-0.51,1.459-0.762,2.608-0.762,3.469c0,1.701,0.686,2.889,2.069,3.542c0.858,0.395,2.472,0.684,4.845,0.882v1.877H653.714&#xd;&#xa;&#x9;&#x9;L653.714,214.851z M697.312,188.853l-11.599-27.878l-11.655,27.878H697.312z" fill="#112369"/>
  <path d="M726.467,212.974c4.184-0.425,6.867-1.369,8.056-2.844c1.186-1.461,1.779-4.859,1.779-10.189v-41.104&#xd;&#xa;&#x9;&#x9;c0-3.658-0.588-6.03-1.727-7.133c-1.157-1.103-3.78-1.756-7.862-1.954v-1.879h19.952l23.256,50.427l22.676-50.427h20.122v1.879&#xd;&#xa;&#x9;&#x9;c-3.757,0.259-6.176,0.949-7.27,2.052c-1.08,1.098-1.63,3.447-1.63,7.035v44.996c0,3.689,0.549,6.055,1.63,7.087&#xd;&#xa;&#x9;&#x9;c1.094,1.035,3.513,1.728,7.27,2.055v1.87h-28.32v-1.87c4.083-0.327,6.633-1.065,7.637-2.197c1.004-1.134,1.504-3.848,1.504-8.13&#xd;&#xa;&#x9;&#x9;v-45.438l-25.922,57.637h-1.385l-25.481-55.253v40.348c0,5.521,0.798,9.132,2.417,10.807c1.059,1.088,3.415,1.833,7.073,2.229&#xd;&#xa;&#x9;&#x9;v1.869h-23.772v-1.872H726.467z" fill="#112369"/>
  <path d="M816.963,212.974c3.861-0.364,6.266-1.124,7.223-2.295c0.951-1.156,1.43-3.818,1.43-7.986v-43.842&#xd;&#xa;&#x9;&#x9;c0-3.526-0.532-5.847-1.604-6.972c-1.072-1.124-3.422-1.825-7.048-2.129v-1.878h26.689c8.572,0,15.135,1.664,19.682,4.996&#xd;&#xa;&#x9;&#x9;c4.548,3.33,6.813,7.711,6.813,13.148c0,6.881-2.518,11.868-7.557,14.973c-5.042,3.102-11.355,4.654-18.938,4.654&#xd;&#xa;&#x9;&#x9;c-1.079,0-2.479-0.029-4.175-0.076c-1.694-0.053-2.956-0.075-3.779-0.075v18.386c0,3.803,0.584,6.19,1.757,7.18&#xd;&#xa;&#x9;&#x9;c1.171,0.973,3.78,1.61,7.833,1.916v1.87h-28.327v-1.87H816.963z M851.121,153.506c-2.866-1.246-6.494-1.868-10.875-1.868&#xd;&#xa;&#x9;&#x9;c-2.075,0-3.353,0.195-3.834,0.607c-0.478,0.41-0.713,1.323-0.713,2.743v26.396c1.811,0.168,2.997,0.267,3.56,0.296&#xd;&#xa;&#x9;&#x9;c0.563,0.037,1.104,0.054,1.627,0.054c4.653,0,8.303-0.653,10.979-1.978c4.839-2.402,7.264-6.905,7.264-13.49&#xd;&#xa;&#x9;&#x9;C859.129,160.062,856.459,155.82,851.121,153.506" fill="#112369"/>
  <path d="M901.736,147.879v1.871c-3.885,0.266-6.402,0.919-7.558,1.956c-1.156,1.041-1.734,3.414-1.734,7.14v32.381&#xd;&#xa;&#x9;&#x9;c0,5.298,0.729,9.438,2.176,12.402c2.707,5.407,7.833,8.108,15.376,8.108c8.273,0,13.824-2.763,16.653-8.299&#xd;&#xa;&#x9;&#x9;c1.582-3.104,2.372-7.878,2.372-14.341v-26.344c0-5.504-0.652-8.958-1.977-10.356c-1.315-1.399-3.818-2.28-7.515-2.646v-1.871&#xd;&#xa;&#x9;&#x9;h23.438v1.871c-3.924,0.427-6.486,1.383-7.689,2.842c-1.201,1.462-1.8,4.853-1.8,10.161v26.344c0,6.988-1.081,12.438-3.217,16.364&#xd;&#xa;&#x9;&#x9;c-3.955,7.218-11.468,10.82-22.541,10.82c-10.942,0-18.388-3.561-22.344-10.676c-2.144-3.826-3.216-8.858-3.216-15.126v-31.635&#xd;&#xa;&#x9;&#x9;c0-3.696-0.561-6.052-1.701-7.086c-1.134-1.044-3.614-1.713-7.445-2.009v-1.871L901.736,147.879L901.736,147.879z" fill="#112369"/>
  <path d="M951.274,194.488c1.71,4.548,3.717,8.166,6.024,10.867c4.015,4.717,8.995,7.071,14.947,7.071&#xd;&#xa;&#x9;&#x9;c3.225,0,6.017-1.017,8.367-3.055c2.358-2.055,3.526-4.898,3.526-8.564c0-3.292-1.178-6.159-3.542-8.593&#xd;&#xa;&#x9;&#x9;c-1.552-1.553-4.807-3.872-9.772-6.964l-8.631-5.399c-2.601-1.643-4.676-3.301-6.221-4.989c-2.875-3.192-4.305-6.722-4.305-10.568&#xd;&#xa;&#x9;&#x9;c0-5.111,1.695-9.36,5.097-12.761c3.392-3.392,7.886-5.097,13.489-5.097c2.304,0,5.08,0.579,8.327,1.714&#xd;&#xa;&#x9;&#x9;c3.248,1.132,5.103,1.71,5.558,1.71c1.256,0,2.121-0.305,2.6-0.897c0.48-0.596,0.846-1.432,1.111-2.526h2.075l2.229,21.561h-2.433&#xd;&#xa;&#x9;&#x9;c-1.644-6.493-4.282-11.027-7.925-13.589c-3.643-2.572-7.239-3.865-10.799-3.865c-2.767,0-5.187,0.822-7.246,2.449&#xd;&#xa;&#x9;&#x9;c-2.061,1.636-3.089,3.895-3.089,6.801c0,2.601,0.792,4.821,2.365,6.675c1.583,1.873,4.03,3.834,7.362,5.872l8.889,5.49&#xd;&#xa;&#x9;&#x9;c5.56,3.429,9.476,6.57,11.772,9.444c2.244,2.904,3.369,6.327,3.369,10.284c0,5.307-2,9.73-6.001,13.292&#xd;&#xa;&#x9;&#x9;c-4.007,3.559-9.117,5.337-15.354,5.337c-3.134,0-6.395-0.593-9.81-1.778c-3.407-1.186-5.361-1.779-5.855-1.779&#xd;&#xa;&#x9;&#x9;c-1.187,0-1.986,0.364-2.404,1.086c-0.402,0.737-0.676,1.498-0.807,2.334h-2.228l-3.018-21.56h2.328V194.488z" fill="#112369"/>
  <rect height="288.602" y="-26.151" fill="#112369" x="515.464" width="4.699"/>
 </g>
</svg>
